<svg xmlns="http://www.w3.org/2000/svg" xmlns:xlink="http://www.w3.org/1999/xlink" xmlns:lucid="lucid" width="1604.25" height="1903.17"><g transform="translate(0 0)" lucid:page-tab-id="0_0"><path d="M0 0h1604.25v1903.17H0z" fill="#fff"/><path d="M160 548c0-4.42 3.58-8 8-8h464c4.42 0 8 3.58 8 8v1044c0 4.42-3.58 8-8 8H168c-4.42 0-8-3.58-8-8z" fill="#fff" fill-opacity="0"/><path d="M164.07 541.18l.82-.55 3.1-.63h5m4.98 0h9.98m5 0h9.96m5 0h9.97m4.98 0h9.98m5 0h9.97m5 0h9.97m4.98 0h9.98m5 0h9.97m5 0h9.97m5 0h9.97m5 0h9.96m5 0h9.97m5 0h9.97m5 0h9.97m5 0h9.97m5 0h9.97m5 0h9.97m5 0h9.97m5 0h9.98m5 0h9.96m5 0h9.97m5 0h9.98m5 0h9.97m5 0h9.97m4.98 0h9.98m5 0h9.97m5 0h9.97m5 0h9.97m4.98 0h9.97m5 0H622m5 0H632l3.1.63.83.55m2.9 2.9l.54.8.63 3.12v4.97m0 4.97v9.95m0 4.96v9.94m0 4.97v9.94m0 5v9.93m0 4.97v9.94m0 4.97v9.96m0 4.97v9.94m0 4.97v9.95m0 4.96v9.94m0 4.97v9.94m0 5v9.93m0 4.97v9.94m0 4.97v9.96m0 4.97v9.94m0 4.97v9.95m0 4.96v9.94m0 4.97v9.94m0 5v9.93m0 4.97v9.94m0 4.97v9.96m0 4.97v9.94m0 4.97v9.95m0 4.96V896m0 4.97v9.94m0 5v9.93m0 4.97v9.94m0 4.97v9.96m0 4.97v9.94m0 4.97v9.95m0 4.96v9.94m0 4.97v9.94m0 5v9.93m0 4.97v9.94m0 4.97v9.96m0 4.97v9.94m0 4.97v9.95m0 4.96v9.94m0 4.97v9.94m0 5v9.93m0 4.97v9.94m0 4.97v9.96m0 4.97v9.94m0 4.97v9.95m0 4.96v9.94m0 4.97v9.94m0 5v9.93m0 4.97v9.94m0 4.97v9.96m0 4.97v9.94m0 4.97v9.95m0 4.96v9.94m0 4.97v9.94m0 5v9.93m0 4.97v9.94m0 4.97v9.96m0 4.97v9.94m0 4.97v9.95m0 4.96v9.94m0 4.97v9.94m0 5v9.93m0 4.97v9.94m0 4.97v9.96m0 4.97v9.94m0 4.97v9.95m0 4.96v9.94m0 4.97v9.94m0 5v9.93m0 4.97v9.94m0 4.97v9.96m0 4.97v4.97l-.63 3.1-.55.83m-2.9 2.9l-.8.54-3.12.63h-5m-4.98 0h-9.98m-5 0h-9.96m-5 0h-9.97m-4.98 0h-9.98m-5 0h-9.97m-5 0h-9.97m-4.98 0h-9.98m-5 0h-9.97m-5 0h-9.97m-5 0h-9.97m-5 0h-9.96m-5 0h-9.97m-5 0h-9.97m-5 0h-9.97m-5 0h-9.97m-5 0h-9.97m-5 0h-9.97m-5 0h-9.97m-5 0h-9.98m-5 0h-9.96m-5 0h-9.97m-5 0h-9.98m-5 0h-9.97m-5 0h-9.97m-4.98 0h-9.98m-5 0h-9.97m-5 0h-9.97m-5 0h-9.97m-4.98 0h-9.97m-5 0H178m-5 0H168l-3.1-.63-.83-.55m-2.9-2.9l-.54-.8-.63-3.12v-4.97m0-4.97v-9.95m0-4.96v-9.94m0-4.97v-9.94m0-5v-9.93m0-4.97v-9.94m0-4.97v-9.96m0-4.97v-9.94m0-4.97v-9.95m0-4.96v-9.94m0-4.97v-9.94m0-5v-9.93m0-4.97v-9.94m0-4.97v-9.96m0-4.97v-9.94m0-4.97v-9.95m0-4.96v-9.94m0-4.97v-9.94m0-5v-9.93m0-4.97v-9.94m0-4.97v-9.96m0-4.97v-9.94m0-4.97v-9.95m0-4.96V1244m0-4.97v-9.94m0-5v-9.93m0-4.97v-9.94m0-4.97v-9.96m0-4.97v-9.94m0-4.97v-9.95m0-4.96v-9.94m0-4.97v-9.94m0-5v-9.93m0-4.97v-9.94m0-4.97v-9.96m0-4.97v-9.94m0-4.97v-9.95m0-4.96v-9.94m0-4.97v-9.94m0-5v-9.93m0-4.97v-9.94m0-4.97v-9.96m0-4.97v-9.94m0-4.97v-9.95m0-4.96v-9.94m0-4.97v-9.94m0-5v-9.93m0-4.97v-9.94m0-4.97v-9.96m0-4.97v-9.94m0-4.97v-9.95m0-4.96v-9.94m0-4.97v-9.94m0-5v-9.93m0-4.97v-9.94m0-4.97v-9.96m0-4.97v-9.94m0-4.97v-9.95m0-4.96V722m0-4.97v-9.94m0-5v-9.93m0-4.97v-9.94m0-4.97v-9.96m0-4.97v-9.94m0-4.97v-9.95m0-4.96v-9.94m0-4.97v-9.94m0-5v-9.93m0-4.97v-9.94m0-4.97v-9.96m0-4.97V548l.63-3.1.55-.83" stroke="#147eba" fill="none"/><use xlink:href="#a" transform="matrix(1,0,0,1,160,560) translate(166.325 14.4)"/><use xlink:href="#b" transform="matrix(1,0,0,1,160,560) translate(255.725 14.4)"/><use xlink:href="#c" transform="matrix(1,0,0,1,160,560) translate(301.675 14.4)"/><path d="M960 548c0-4.42 3.58-8 8-8h464c4.42 0 8 3.58 8 8v1044c0 4.42-3.58 8-8 8H968c-4.42 0-8-3.58-8-8z" fill="#fff" fill-opacity="0"/><path d="M964.07 541.18l.82-.55 3.1-.63h5m4.98 0h9.98m5 0h9.96m5 0h9.97m4.98 0h9.98m5 0h9.97m5 0h9.97m4.98 0h9.98m5 0h9.97m5 0h9.97m5 0h9.97m5 0h9.96m5 0h9.97m5 0h9.97m5 0h9.97m5 0h9.97m5 0h9.97m5 0h9.97m5 0h9.97m5 0h9.98m5 0h9.96m5 0h9.97m5 0h9.98m5 0h9.97m5 0h9.97m4.98 0h9.98m5 0h9.97m5 0h9.97m5 0h9.97m4.98 0h9.97m5 0h9.97m5 0h4.98l3.1.63.83.55m2.9 2.9l.54.8.63 3.12v4.97m0 4.97v9.95m0 4.96v9.94m0 4.97v9.94m0 5v9.93m0 4.97v9.94m0 4.97v9.96m0 4.97v9.94m0 4.97v9.95m0 4.96v9.94m0 4.97v9.94m0 5v9.93m0 4.97v9.94m0 4.97v9.96m0 4.97v9.94m0 4.97v9.95m0 4.96v9.94m0 4.97v9.94m0 5v9.93m0 4.97v9.94m0 4.97v9.96m0 4.97v9.94m0 4.97v9.95m0 4.96V896m0 4.97v9.94m0 5v9.93m0 4.97v9.94m0 4.97v9.96m0 4.97v9.94m0 4.97v9.95m0 4.96v9.94m0 4.97v9.94m0 5v9.93m0 4.97v9.94m0 4.97v9.96m0 4.97v9.94m0 4.97v9.95m0 4.96v9.94m0 4.97v9.94m0 5v9.93m0 4.97v9.94m0 4.97v9.96m0 4.97v9.94m0 4.97v9.95m0 4.96v9.94m0 4.97v9.94m0 5v9.93m0 4.97v9.94m0 4.97v9.96m0 4.97v9.94m0 4.97v9.95m0 4.96v9.94m0 4.97v9.94m0 5v9.93m0 4.97v9.94m0 4.97v9.96m0 4.97v9.94m0 4.97v9.95m0 4.96v9.94m0 4.97v9.94m0 5v9.93m0 4.97v9.94m0 4.97v9.96m0 4.97v9.94m0 4.97v9.95m0 4.96v9.94m0 4.97v9.94m0 5v9.93m0 4.97v9.94m0 4.97v9.96m0 4.97v4.97l-.63 3.1-.55.83m-2.9 2.9l-.8.54-3.12.63h-5m-4.98 0h-9.98m-5 0h-9.96m-5 0h-9.97m-4.98 0h-9.98m-5 0h-9.97m-5 0h-9.97m-4.98 0h-9.98m-5 0h-9.97m-5 0h-9.97m-5 0h-9.97m-5 0h-9.96m-5 0h-9.97m-5 0h-9.97m-5 0h-9.97m-5 0h-9.97m-5 0h-9.97m-5 0h-9.97m-5 0h-9.97m-5 0h-9.98m-5 0h-9.96m-5 0h-9.97m-5 0h-9.98m-5 0h-9.97m-5 0h-9.97m-4.98 0h-9.98m-5 0h-9.97m-5 0h-9.97m-5 0h-9.97m-4.98 0h-9.97m-5 0H978m-5 0H968l-3.1-.63-.83-.55m-2.9-2.9l-.54-.8-.63-3.12v-4.97m0-4.97v-9.95m0-4.96v-9.94m0-4.97v-9.94m0-5v-9.93m0-4.97v-9.94m0-4.97v-9.96m0-4.97v-9.94m0-4.97v-9.95m0-4.96v-9.94m0-4.97v-9.94m0-5v-9.93m0-4.97v-9.94m0-4.97v-9.96m0-4.97v-9.94m0-4.97v-9.95m0-4.96v-9.94m0-4.97v-9.94m0-5v-9.93m0-4.97v-9.94m0-4.97v-9.96m0-4.97v-9.94m0-4.97v-9.95m0-4.96V1244m0-4.97v-9.94m0-5v-9.93m0-4.97v-9.94m0-4.97v-9.96m0-4.97v-9.94m0-4.97v-9.95m0-4.96v-9.94m0-4.97v-9.94m0-5v-9.93m0-4.97v-9.94m0-4.97v-9.96m0-4.97v-9.94m0-4.97v-9.95m0-4.96v-9.94m0-4.97v-9.94m0-5v-9.93m0-4.97v-9.94m0-4.97v-9.96m0-4.97v-9.94m0-4.97v-9.95m0-4.96v-9.94m0-4.97v-9.94m0-5v-9.93m0-4.97v-9.94m0-4.97v-9.96m0-4.97v-9.94m0-4.97v-9.95m0-4.96v-9.94m0-4.97v-9.94m0-5v-9.93m0-4.97v-9.94m0-4.97v-9.96m0-4.97v-9.94m0-4.97v-9.95m0-4.96V722m0-4.97v-9.94m0-5v-9.93m0-4.97v-9.94m0-4.97v-9.96m0-4.97v-9.94m0-4.97v-9.95m0-4.96v-9.94m0-4.97v-9.94m0-5v-9.93m0-4.97v-9.94m0-4.97v-9.96m0-4.97V548l.63-3.1.55-.83" stroke="#147eba" fill="none"/><use xlink:href="#a" transform="matrix(1,0,0,1,960,560) translate(166.825 14.4)"/><use xlink:href="#b" transform="matrix(1,0,0,1,960,560) translate(256.225 14.4)"/><use xlink:href="#d" transform="matrix(1,0,0,1,960,560) translate(302.175 14.4)"/><path d="M260 1068c0-4.42 3.58-8 8-8h1044c4.42 0 8 3.58 8 8v164c0 4.42-3.58 8-8 8H268c-4.42 0-8-3.58-8-8z" fill="#fff" fill-opacity="0"/><path d="M261.3 1063.9l1.04-1.56 1.56-1.04m2.26-.93l1.84-.37h1.5m2 0h3m2 0h3m2 0h2.98m2 0h3m2 0h3m2 0h3m2 0h3m1.98 0h3m2 0h3m2 0h3m2 0h3m1.98 0h3m2 0h3m2 0h3m2 0h3m1.98 0h3m2 0h3m2 0h3m2 0h3m2 0h2.98m2 0h3m2 0h3m2 0h3m2 0h2.98m2 0h3m2 0h3m2 0h3m2 0h2.98m2 0h3m2 0h3m2 0h3m2 0h3m1.98 0h3m2 0h3m2 0h3m2 0h3m1.98 0h3m2 0h3m2 0h3m2 0h3m2 0h2.98m2 0h3m2 0h3m2 0h3m2 0h2.98m2 0h3m2 0h3m2 0h3m2 0h2.98m2 0h3m2 0h3m2 0h3m2 0h2.98m2 0h3m2 0h3m2 0h3m2 0h3m1.98 0h3m2 0h3m2 0h3m2 0h3m1.98 0h3m2 0h3m2 0h3m2 0h3m2 0h2.98m2 0h3m2 0h3m2 0h3m2 0h2.98m2 0h3m2 0h3m2 0h3m2 0h2.98m2 0h3m2 0h3m2 0h3m2 0h3m1.98 0h3m2 0h3m2 0h3m2 0h3m1.98 0h3m2 0h3m2 0h3m2 0h3m2 0h2.98m2 0h3m2 0h3m2 0h3m2 0h2.98m2 0h3m2 0h3m2 0h3m2 0h2.98m2 0h3m2 0h3m2 0h3m2 0H764m2 0h3m2 0h3m2 0h3m2 0h3m1.98 0h3m2 0h3m2 0h3m2 0h3m1.98 0h3m2 0h3m2 0h3m2 0h3m2 0h2.98m2 0h3m2 0h3m2 0h3m2 0h2.98m2 0h3m2 0h3m2 0h3m2 0h2.98m2 0h3m2 0h3m2 0h3m2 0h3m1.98 0h3m2 0h3m2 0h3m2 0h3m1.98 0h3m2 0h3m2 0h3m2 0h3m2 0h2.98m2 0h3m2 0h3m2 0h3m2 0h2.98m2 0h3m2 0h3m2 0h3m2 0h2.98m2 0h3m2 0h3m2 0h3m2 0h2.98m2 0h3m2 0h3m2 0h3m2 0h3m1.98 0h3m2 0h3m2 0h3m2 0h3m1.98 0h3m2 0h3m2 0h3m2 0h3m2 0h2.98m2 0h3m2 0h3m2 0h3m2 0h2.98m2 0h3m2 0h3m2 0h3m2 0h2.98m2 0h3m2 0h3m2 0h3m2 0h3m1.98 0h3m2 0h3m2 0h3m2 0h3m1.98 0h3m2 0h3m2 0h3m2 0h3m1.98 0h3m2 0h3m2 0h3m2 0h3m2 0h2.98m2 0h3m2 0h3m2 0h3m2 0h2.98m2 0h3m2 0h3m2 0h3m2 0h2.98m2 0h3m2 0h3m2 0h3m2 0h3m1.98 0h3m2 0h3m2 0h3m2 0h3m1.98 0h3m2 0h3m2 0h3m2 0h3m2 0h2.98m2 0h3m2 0h3m2 0h3m2 0h2.98m2 0h1.5l1.84.37m2.26.93l1.56 1.04 1.04 1.56m.93 2.26l.37 1.84v1.5m0 1.98v2.98m0 2v2.97m0 2v2.97m0 2v2.97m0 2v2.97m0 2v2.97m0 2v2.98m0 2v2.97m0 2v2.97m0 2v2.97m0 1.98v2.98m0 2v2.97m0 2v2.97m0 1.98v3m0 1.97v3m0 1.97v3m0 1.97v2.98m0 1.98v3m0 1.97v3m0 1.97v2.98m0 2v2.97m0 2v2.97m0 2v2.97m0 1.98v2.98m0 2v2.97m0 2v2.97m0 2v2.97m0 2v2.97m0 2v2.97m0 2v2.98m0 2v2.97m0 2v2.97m0 2v1.48l-.37 1.84m-.93 2.26l-1.04 1.56-1.56 1.04m-2.26.93l-1.84.37h-1.5m-2 0h-3m-2 0h-3m-2 0h-2.98m-2 0h-3m-2 0h-3m-2 0h-3m-2 0h-3m-1.98 0h-3m-2 0h-3m-2 0h-3m-2 0h-3m-1.98 0h-3m-2 0h-3m-2 0h-3m-2 0h-3m-1.98 0h-3m-2 0h-3m-2 0h-3m-2 0h-3m-2 0h-2.98m-2 0h-3m-2 0h-3m-2 0h-3m-2 0h-2.98m-2 0h-3m-2 0h-3m-2 0h-3m-2 0h-2.98m-2 0h-3m-2 0h-3m-2 0h-3m-2 0h-3m-1.98 0h-3m-2 0h-3m-2 0h-3m-2 0h-3m-1.98 0h-3m-2 0h-3m-2 0h-3m-2 0h-3m-2 0h-2.98m-2 0h-3m-2 0h-3m-2 0h-3m-2 0h-2.98m-2 0h-3m-2 0h-3m-2 0h-3m-2 0h-2.98m-2 0h-3m-2 0h-3m-2 0h-3m-2 0h-2.98m-2 0h-3m-2 0h-3m-2 0h-3m-2 0h-3m-1.98 0h-3m-2 0h-3m-2 0h-3m-2 0h-3m-1.98 0h-3m-2 0h-3m-2 0h-3m-2 0h-3m-2 0h-2.98m-2 0h-3m-2 0h-3m-2 0h-3m-2 0h-2.98m-2 0h-3m-2 0h-3m-2 0h-3m-2 0h-2.98m-2 0h-3m-2 0h-3m-2 0h-3m-2 0h-3m-1.98 0h-3m-2 0h-3m-2 0h-3m-2 0h-3m-1.98 0h-3m-2 0h-3m-2 0h-3m-2 0h-3m-2 0h-2.98m-2 0h-3m-2 0h-3m-2 0h-3m-2 0h-2.98m-2 0h-3m-2 0h-3m-2 0h-3m-2 0h-2.98m-2 0h-3m-2 0h-3m-2 0h-3m-2 0H816m-2 0h-3m-2 0h-3m-2 0h-3m-2 0h-3m-1.98 0h-3m-2 0h-3m-2 0h-3m-2 0h-3m-1.98 0h-3m-2 0h-3m-2 0h-3m-2 0h-3m-2 0h-2.98m-2 0h-3m-2 0h-3m-2 0h-3m-2 0h-2.98m-2 0h-3m-2 0h-3m-2 0h-3m-2 0h-2.98m-2 0h-3m-2 0h-3m-2 0h-3m-2 0h-3m-1.98 0h-3m-2 0h-3m-2 0h-3m-2 0h-3m-1.98 0h-3m-2 0h-3m-2 0h-3m-2 0h-3m-2 0h-2.98m-2 0h-3m-2 0h-3m-2 0h-3m-2 0h-2.98m-2 0h-3m-2 0h-3m-2 0h-3m-2 0h-2.98m-2 0h-3m-2 0h-3m-2 0h-3m-2 0h-2.98m-2 0h-3m-2 0h-3m-2 0h-3m-2 0h-3m-1.98 0h-3m-2 0h-3m-2 0h-3m-2 0h-3m-1.98 0h-3m-2 0h-3m-2 0h-3m-2 0h-3m-2 0h-2.98m-2 0h-3m-2 0h-3m-2 0h-3m-2 0h-2.98m-2 0h-3m-2 0h-3m-2 0h-3m-2 0h-2.98m-2 0h-3m-2 0h-3m-2 0h-3m-2 0h-3m-1.98 0h-3m-2 0h-3m-2 0h-3m-2 0h-3m-1.98 0h-3m-2 0h-3m-2 0h-3m-2 0h-3m-1.98 0h-3m-2 0h-3m-2 0h-3m-2 0h-3m-2 0h-2.98m-2 0h-3m-2 0h-3m-2 0h-3m-2 0h-2.98m-2 0h-3m-2 0h-3m-2 0h-3m-2 0h-2.98m-2 0h-3m-2 0h-3m-2 0h-3m-2 0h-3m-1.98 0h-3m-2 0h-3m-2 0h-3m-2 0h-3m-1.98 0h-3m-2 0h-3m-2 0h-3m-2 0h-3m-2 0h-2.98m-2 0h-3m-2 0h-3m-2 0h-3m-2 0h-2.98m-2 0H268l-1.84-.37m-2.26-.93l-1.56-1.04-1.04-1.56m-.93-2.26L260 1232v-1.5m0-1.98v-2.98m0-2v-2.97m0-2v-2.97m0-2v-2.97m0-2v-2.97m0-2v-2.97m0-2v-2.98m0-2v-2.97m0-2v-2.97m0-2v-2.97m0-1.98v-2.98m0-2v-2.97m0-2v-2.97m0-1.98v-3m0-1.97v-3m0-1.97v-3m0-1.97v-2.98m0-1.98v-3m0-1.97v-3m0-1.97v-2.98m0-2v-2.97m0-2v-2.97m0-2v-2.97m0-1.98v-2.98m0-2v-2.97m0-2v-2.97m0-2v-2.97m0-2v-2.97m0-2v-2.97m0-2v-2.98m0-2v-2.97m0-2v-2.97m0-2V1068l.37-1.84" stroke="#d86613" fill="none"/><path d="M762 1060h56v56h-56v-56z" stroke="#fff" stroke-opacity="0" fill="#d86613"/><path d="M781.68 1083.73l-1.14 1.13 2.33 2.34H770v1.6h12.87l-2.33 2.34 1.14 1.13 4.27-4.27-4.27-4.27zM810 1087.2h-12.87l2.33-2.34-1.14-1.13-4.27 4.27 4.27 4.27 1.14-1.13-2.33-2.34H810v-1.6zM789.2 1070.63v12.87h1.6v-12.87l2.34 2.33 1.13-1.13-4.27-4.28-4.27 4.28 1.13 1.13 2.34-2.33zM790.8 1105.37v-12.87h-1.6v12.87l-2.34-2.33-1.13 1.13 4.27 4.28 4.27-4.28-1.13-1.13-2.34 2.33z" stroke="#fff" stroke-opacity="0" fill="#fff"/><use xlink:href="#e" transform="matrix(1,0,0,1,260,1131) translate(479.55 14.4)"/><use xlink:href="#f" transform="matrix(1,0,0,1,260,1131) translate(521.55 14.4)"/><path d="M260 788c0-4.42 3.58-8 8-8h1064c4.42 0 8 3.58 8 8v144c0 4.42-3.58 8-8 8H268c-4.42 0-8-3.58-8-8z" fill="#fff" fill-opacity="0"/><path d="M261.47 783.64l.87-1.3 1.3-.87m2.83-1.16l1.53-.3h2m4 0h4m4 0h4m4 0h4m4 0h4m4 0h4m4 0h4m4 0h4m4 0h4m4 0h4m4 0h4m4 0h4m4 0h4m4 0h4m4 0h4m4 0h4m4 0h4m4 0h4m4 0h4m4 0h4m4 0h4m4 0h4m4 0h4m4 0h4m4 0h4m4 0h4m4 0h4m4 0h4m4 0h4m4 0h4m4 0h4m4 0h4m4 0h4m4 0h4m4 0h4m4 0h4m4 0h4m4 0h4m4 0h4m4 0h4m4 0h4m4 0h4m4 0h4m4 0h4m4 0h4m4 0h4m4 0h4m4 0h4m4 0h4m4 0h4m4 0h4m4 0h4m4 0h4m4 0h4m4 0h4m4 0h4m4 0h4m4 0h4m4 0h4m4 0h4m4 0h4m4 0h4m4 0h4m4 0h4m4 0h4m4 0h4m4 0h4m4 0h4m4 0h4m4 0h4m4 0h4m4 0h4m4 0h4m4 0h4m4 0h4m4 0h4m4 0h4m4 0h4m4 0h4m4 0h4m4 0h4m4 0h4m4 0h4m4 0h4m4 0h4m4 0h4m4 0h4m4 0h4m4 0h4m4 0h4m4 0h4m4 0h4m4 0h4m4 0h4m4 0h4m4 0h4m4 0h4m4 0h4m4 0h4m4 0h4m4 0h4m4 0h4m4 0h4m4 0h4m4 0h4m4 0h4m4 0h4m4 0h4m4 0h4m4 0h4m4 0h4m4 0h4m4 0h4m4 0h4m4 0h4m4 0h4m4 0h4m4 0h4m4 0h4m4 0h4m4 0h4m4 0h4m4 0h4m4 0h4m4 0h4m4 0h4m4 0h4m4 0h4m4 0h4m4 0h4m4 0h4m4 0h4m4 0h4m4 0h2l1.53.3m2.83 1.17l1.3.87.87 1.3m1.16 2.83l.3 1.53v2m0 4v4m0 4v4m0 4v4m0 4v4m0 4v4m0 4v4m0 4v4m0 4v4m0 4v4m0 4v4m0 4v4m0 4v4m0 4v4m0 4v4m0 4v4m0 4v4m0 4v4m0 4v2l-.3 1.53m-1.17 2.83l-.87 1.3-1.3.87m-2.83 1.16l-1.53.3h-2m-4 0h-4m-4 0h-4m-4 0h-4m-4 0h-4m-4 0h-4m-4 0h-4m-4 0h-4m-4 0h-4m-4 0h-4m-4 0h-4m-4 0h-4m-4 0h-4m-4 0h-4m-4 0h-4m-4 0h-4m-4 0h-4m-4 0h-4m-4 0h-4m-4 0h-4m-4 0h-4m-4 0h-4m-4 0h-4m-4 0h-4m-4 0h-4m-4 0h-4m-4 0h-4m-4 0h-4m-4 0h-4m-4 0h-4m-4 0h-4m-4 0h-4m-4 0h-4m-4 0h-4m-4 0h-4m-4 0h-4m-4 0h-4m-4 0h-4m-4 0h-4m-4 0h-4m-4 0h-4m-4 0h-4m-4 0h-4m-4 0h-4m-4 0h-4m-4 0h-4m-4 0h-4m-4 0h-4m-4 0h-4m-4 0h-4m-4 0h-4m-4 0h-4m-4 0h-4m-4 0h-4m-4 0h-4m-4 0h-4m-4 0h-4m-4 0h-4m-4 0h-4m-4 0h-4m-4 0h-4m-4 0h-4m-4 0h-4m-4 0h-4m-4 0h-4m-4 0h-4m-4 0h-4m-4 0h-4m-4 0h-4m-4 0h-4m-4 0h-4m-4 0h-4m-4 0h-4m-4 0h-4m-4 0h-4m-4 0h-4m-4 0h-4m-4 0h-4m-4 0h-4m-4 0h-4m-4 0h-4m-4 0h-4m-4 0h-4m-4 0h-4m-4 0h-4m-4 0h-4m-4 0h-4m-4 0h-4m-4 0h-4m-4 0h-4m-4 0h-4m-4 0h-4m-4 0h-4m-4 0h-4m-4 0h-4m-4 0h-4m-4 0h-4m-4 0h-4m-4 0h-4m-4 0h-4m-4 0h-4m-4 0h-4m-4 0h-4m-4 0h-4m-4 0h-4m-4 0h-4m-4 0h-4m-4 0h-4m-4 0h-4m-4 0h-4m-4 0h-4m-4 0h-4m-4 0h-4m-4 0h-4m-4 0h-4m-4 0h-4m-4 0h-4m-4 0h-4m-4 0h-4m-4 0h-4m-4 0h-4m-4 0h-4m-4 0h-4m-4 0h-4m-4 0h-4m-4 0h-4m-4 0h-4m-4 0h-4m-4 0h-4m-4 0h-4m-4 0h-4m-4 0h-4m-4 0h-4m-4 0h-2l-1.53-.3m-2.83-1.17l-1.3-.87-.87-1.3m-1.16-2.83L260 932v-2m0-4v-4m0-4v-4m0-4v-4m0-4v-4m0-4v-4m0-4v-4m0-4v-4m0-4v-4m0-4v-4m0-4v-4m0-4v-4m0-4v-4m0-4v-4m0-4v-4m0-4v-4m0-4v-4m0-4v-4m0-4v-2l.3-1.53" stroke="#5a6c86" fill="none"/><path d="M1000 700h400v256.4h-400z" fill="#248814" fill-opacity=".13"/><path d="M1000 700h56v56h-56v-56z" stroke="#fff" stroke-opacity="0" fill="#248814"/><path d="M1043.38 722.18c-.15-.17-.34-.25-.56-.25h-5.15v-5.58c-.03-2.54-.96-4.7-2.84-6.4-1.9-1.84-4.15-2.75-6.77-2.75-2.65 0-4.9.83-6.8 2.62-1.9 1.7-2.87 3.87-2.9 6.4v5.66h-5.15c-.24 0-.43.1-.58.25-.16.17-.22.34-.22.6V748c0 .43.34.8.8.8h29.6c.46 0 .8-.37.8-.8v-25.28c0-.2-.06-.38-.22-.54zm-23.46-5.9c.03-2.13.8-3.88 2.37-5.3 1.6-1.5 3.52-2.2 5.73-2.2 2.22 0 4.12.75 5.7 2.25 1.54 1.4 2.32 3.2 2.32 5.32v5.58h-16.16zm22.1 30.94h-28.03v-23.7h28z" stroke="#fff" stroke-opacity="0" fill="#fff"/><path d="M1027.2 737.3v6.25h1.6v-6.23c2.13-.4 3.62-2.2 3.63-4.35 0-2.43-1.97-4.4-4.4-4.43-2.2-.03-4.06 1.5-4.44 3.68-.42 2.4 1.2 4.68 3.6 5.1zm.82-7.15c.78 0 1.44.27 2 .82.54.56.82 1.22.8 2 .03 1.55-1.2 2.8-2.74 2.82h-.06c-1.56.1-2.92-1.06-3.04-2.62-.12-1.56 1.05-2.93 2.6-3.03.16-.02.28-.02.44 0z" stroke="#fff" stroke-opacity="0" fill="#fff"/><use xlink:href="#g" transform="matrix(1,0,0,1,1071,720) translate(0 10.6640625)"/><path d="M1000 1000.7h400v261.54h-400z" fill="#147eba" fill-opacity=".13"/><path d="M1000 1000.7h56v56h-56v-56z" stroke="#fff" stroke-opacity="0" fill="#147eba"/><path d="M1043.38 1022.88c-.15-.17-.34-.25-.56-.25h-5.15v-5.57c-.03-2.54-.96-4.7-2.84-6.4-1.9-1.84-4.15-2.76-6.77-2.76-2.65 0-4.9.84-6.8 2.63-1.9 1.7-2.87 3.86-2.9 6.4v5.66h-5.15c-.24 0-.43.07-.58.24-.16.17-.22.33-.22.58v25.3c0 .4.34.78.8.78h29.6c.46 0 .8-.37.8-.8v-25.28c0-.2-.06-.37-.22-.54zm-23.46-5.9c.03-2.13.8-3.88 2.37-5.3 1.6-1.5 3.52-2.2 5.73-2.2 2.22 0 4.12.75 5.7 2.25 1.54 1.42 2.32 3.2 2.32 5.33v5.57h-16.16zm22.1 30.94h-28.03v-23.7h28z" stroke="#fff" stroke-opacity="0" fill="#fff"/><path d="M1027.2 1038v6.26h1.6v-6.23c2.13-.4 3.62-2.2 3.63-4.35 0-2.44-1.97-4.42-4.4-4.43-2.2-.03-4.06 1.5-4.44 3.68-.42 2.4 1.2 4.68 3.6 5.08zm.82-7.15c.78 0 1.44.27 2 .83.54.55.82 1.22.8 2 .03 1.54-1.2 2.8-2.74 2.82h-.06c-1.56.12-2.92-1.05-3.04-2.6-.12-1.58 1.05-2.94 2.6-3.05h.44z" stroke="#fff" stroke-opacity="0" fill="#fff"/><use xlink:href="#h" transform="matrix(1,0,0,1,1071,1020.7048077026366) translate(0 10.6640625)"/><path d="M1000 1300h400v241.54h-400z" fill="#147eba" fill-opacity=".13"/><path d="M1000 1300h56v56h-56v-56z" stroke="#fff" stroke-opacity="0" fill="#147eba"/><path d="M1043.38 1322.18c-.15-.17-.34-.25-.56-.25h-5.15v-5.58c-.03-2.54-.96-4.7-2.84-6.4-1.9-1.84-4.15-2.75-6.77-2.75-2.65 0-4.9.83-6.8 2.62-1.9 1.7-2.87 3.87-2.9 6.4v5.66h-5.15c-.24 0-.43.1-.58.25-.16.17-.22.34-.22.6V1348c0 .43.34.8.8.8h29.6c.46 0 .8-.37.8-.8v-25.28c0-.2-.06-.38-.22-.54zm-23.46-5.9c.03-2.13.8-3.88 2.37-5.3 1.6-1.5 3.52-2.2 5.73-2.2 2.22 0 4.12.75 5.7 2.25 1.54 1.4 2.32 3.2 2.32 5.32v5.58h-16.16zm22.1 30.94h-28.03v-23.7h28z" stroke="#fff" stroke-opacity="0" fill="#fff"/><path d="M1027.2 1337.3v6.25h1.6v-6.23c2.13-.4 3.62-2.2 3.63-4.35 0-2.43-1.97-4.4-4.4-4.43-2.2-.03-4.06 1.5-4.44 3.68-.42 2.4 1.2 4.68 3.6 5.1zm.82-7.15c.78 0 1.44.27 2 .82.54.56.82 1.22.8 2 .03 1.55-1.2 2.8-2.74 2.82h-.06c-1.56.1-2.92-1.06-3.04-2.62-.12-1.56 1.05-2.93 2.6-3.03.16-.02.28-.02.44 0z" stroke="#fff" stroke-opacity="0" fill="#fff"/><use xlink:href="#i" transform="matrix(1,0,0,1,1071,1320) translate(0 10.6640625)"/><path d="M773.28 259.8h-19.76c-.9 0-1.63-.72-1.63-1.6v-2.43c0-9.04 5.93-16.62 14.75-18.74.4-.1.78-.05 1.16.16 2.6 1.38 5.4 1.38 8 0 .38-.22.76-.26 1.16-.17 2.32.57 4.22 1.4 6.2 2.7l-1.82 2.7c-1.47-.95-2.84-1.6-4.56-2.05-3.3 1.5-6.66 1.5-9.94 0-7.04 1.97-11.7 8.1-11.7 15.4v.78h18.14z" stroke="#fff" stroke-opacity="0" fill="#666"/><path d="M771.78 241.4c-5.87 0-10.64-4.76-10.64-10.62 0-5.86 4.77-10.62 10.64-10.62 5.88-.06 10.66 4.65 10.73 10.5.05 4.05-2 7.5-5.57 9.42-1.64.92-3.25 1.32-5.15 1.32zm0-18c-4.1 0-7.46 3.28-7.48 7.38 0 2.78 1.4 5.16 3.87 6.48 2.33 1.25 4.9 1.25 7.22 0 2.47-1.34 3.9-3.76 3.86-6.6-.04-4.04-3.4-7.3-7.48-7.25zM826.5 259.8h-19.76v-3.23h18.14v-.8c0-7.3-4.67-13.44-11.68-15.4-3.3 1.53-6.68 1.53-9.97 0-1.72.48-3.13 1.14-4.6 2.17l-1.85-2.67c1.97-1.37 3.9-2.24 6.2-2.83.4-.1.82-.04 1.2.16 2.56 1.4 5.4 1.4 8 0 .4-.2.76-.25 1.17-.16 8.8 2.12 14.76 9.7 14.76 18.73v2.42c0 .88-.7 1.58-1.6 1.6z" stroke="#fff" stroke-opacity="0" fill="#666"/><path d="M808.18 241.4c-5.92 0-10.7-4.8-10.7-10.72 0-5.9 4.82-10.68 10.74-10.68s10.7 4.82 10.7 10.72c0 4.02-2.03 7.45-5.57 9.37-1.68.9-3.28 1.3-5.17 1.3zm0-18c-4.1-.02-7.44 3.28-7.46 7.4-.03 2.77 1.4 5.14 3.86 6.45 2.3 1.26 4.9 1.26 7.22 0 2.5-1.33 3.95-3.77 3.9-6.6-.08-4.08-3.45-7.33-7.52-7.25zM815.9 296.2h-51.86c-.9 0-1.6-.7-1.6-1.6v-3.44c-.06-12.47 8.2-22.94 20.3-25.9.46-.1.84-.05 1.23.13 3.85 2.07 8.1 2.07 12 0 .33-.2.7-.25 1.16-.13 12.16 2.9 20.42 13.4 20.37 25.9v3.43c0 .9-.72 1.6-1.6 1.6zm-50.2-3.2h48.55v-1.84c0-10.73-6.94-19.75-17.35-22.54-4.56 2.2-9.36 2.2-13.92 0-10.4 2.8-17.3 11.8-17.3 22.54z" stroke="#fff" stroke-opacity="0" fill="#666"/><path d="M790.02 270.15c-2.57 0-4.76-.55-7.04-1.78-7.07-3.87-9.66-12.7-5.8-19.78 3.88-7.06 12.72-9.66 19.82-5.8 7.07 3.86 9.67 12.7 5.8 19.77-1.4 2.57-3.23 4.4-5.8 5.8-2.25 1.23-4.44 1.78-6.98 1.78zm0-25.5c-4.23-.05-7.88 2.07-9.93 5.8-2.93 5.4-.94 12.15 4.46 15.1 3.5 1.86 7.36 1.86 10.86 0 3.77-2.04 5.93-5.7 5.87-9.94-.1-6.1-5.15-11.03-11.28-10.95z" stroke="#fff" stroke-opacity="0" fill="#666"/><path d="M826.94 259.8H789.1c-.64 0-1.16-.5-1.16-1.17v-2.5c-.04-9.1 5.98-16.75 14.82-18.9.32-.1.6-.04.88.1 2.8 1.5 5.9 1.5 8.76 0 .24-.14.52-.2.84-.1 8.88 2.13 14.9 9.77 14.87 18.9v2.5c0 .66-.52 1.18-1.16 1.18zm-36.63-2.35h35.44v-1.33c0-7.83-5.07-14.4-12.66-16.45-3.33 1.6-6.83 1.6-10.16 0-7.6 2.04-12.6 8.62-12.6 16.45z" stroke="#fff" stroke-opacity="0" stroke-width=".73" fill="#fff" fill-opacity="0"/><path d="M790.9 259.8h-37.84c-.64 0-1.17-.5-1.17-1.17v-2.5c-.05-9.1 5.98-16.75 14.82-18.9.32-.1.6-.04.88.1 2.8 1.5 5.9 1.5 8.76 0 .24-.14.52-.2.84-.1 8.88 2.13 14.9 9.77 14.86 18.9v2.5c0 .66-.52 1.18-1.16 1.18zm-36.64-2.35h35.43v-1.33c0-7.83-5.07-14.4-12.66-16.45-3.33 1.6-6.83 1.6-10.16 0-7.6 2.04-12.62 8.62-12.62 16.45z" stroke="#fff" stroke-opacity="0" stroke-width=".73" fill="#fff" fill-opacity="0"/><path d="M200 700h400v256.4H200z" fill="#248814" fill-opacity=".13"/><path d="M200 700h56v56h-56v-56z" stroke="#fff" stroke-opacity="0" fill="#248814"/><path d="M243.38 722.18c-.15-.17-.34-.25-.56-.25h-5.15v-5.58c-.03-2.54-.96-4.7-2.84-6.4-1.9-1.84-4.15-2.75-6.77-2.75-2.65 0-4.9.83-6.8 2.62-1.9 1.7-2.87 3.87-2.9 6.4v5.66h-5.15c-.24 0-.43.1-.58.25-.16.17-.22.34-.22.6V748c0 .43.34.8.8.8h29.6c.46 0 .8-.37.8-.8v-25.28c0-.2-.06-.38-.22-.54zm-23.46-5.9c.03-2.13.8-3.88 2.37-5.3 1.6-1.5 3.52-2.2 5.73-2.2 2.22 0 4.12.75 5.7 2.25 1.54 1.4 2.32 3.2 2.32 5.32v5.58H219.9zm22.1 30.94h-28.03v-23.7h28z" stroke="#fff" stroke-opacity="0" fill="#fff"/><path d="M227.2 737.3v6.25h1.6v-6.23c2.13-.4 3.62-2.2 3.63-4.35 0-2.43-1.97-4.4-4.4-4.43-2.2-.03-4.06 1.5-4.44 3.68-.42 2.4 1.2 4.68 3.6 5.1zm.82-7.15c.78 0 1.44.27 2 .82.54.56.82 1.22.8 2 .03 1.55-1.2 2.8-2.74 2.82h-.06c-1.56.1-2.92-1.06-3.04-2.62-.12-1.56 1.05-2.93 2.6-3.03.16-.02.28-.02.44 0z" stroke="#fff" stroke-opacity="0" fill="#fff"/><use xlink:href="#j" transform="matrix(1,0,0,1,271,720) translate(0 10.6640625)"/><path d="M200 1000.7h400v261.54H200z" fill="#147eba" fill-opacity=".13"/><path d="M200 1000.7h56v56h-56v-56z" stroke="#fff" stroke-opacity="0" fill="#147eba"/><path d="M243.38 1022.88c-.15-.17-.34-.25-.56-.25h-5.15v-5.57c-.03-2.54-.96-4.7-2.84-6.4-1.9-1.84-4.15-2.76-6.77-2.76-2.65 0-4.9.84-6.8 2.63-1.9 1.7-2.87 3.86-2.9 6.4v5.66h-5.15c-.24 0-.43.07-.58.24-.16.17-.22.33-.22.58v25.3c0 .4.34.78.8.78h29.6c.46 0 .8-.37.8-.8v-25.28c0-.2-.06-.37-.22-.54zm-23.46-5.9c.03-2.13.8-3.88 2.37-5.3 1.6-1.5 3.52-2.2 5.73-2.2 2.22 0 4.12.75 5.7 2.25 1.54 1.42 2.32 3.2 2.32 5.33v5.57H219.9zm22.1 30.94h-28.03v-23.7h28z" stroke="#fff" stroke-opacity="0" fill="#fff"/><path d="M227.2 1038v6.26h1.6v-6.23c2.13-.4 3.62-2.2 3.63-4.35 0-2.44-1.97-4.42-4.4-4.43-2.2-.03-4.06 1.5-4.44 3.68-.42 2.4 1.2 4.68 3.6 5.08zm.82-7.15c.78 0 1.44.27 2 .83.54.55.82 1.22.8 2 .03 1.54-1.2 2.8-2.74 2.82h-.06c-1.56.12-2.92-1.05-3.04-2.6-.12-1.58 1.05-2.94 2.6-3.05h.44z" stroke="#fff" stroke-opacity="0" fill="#fff"/><use xlink:href="#k" transform="matrix(1,0,0,1,271,1020.7048077026366) translate(0 10.6640625)"/><path d="M200 1300h400v241.54H200z" fill="#147eba" fill-opacity=".13"/><path d="M200 1300h56v56h-56v-56z" stroke="#fff" stroke-opacity="0" fill="#147eba"/><path d="M243.38 1322.18c-.15-.17-.34-.25-.56-.25h-5.15v-5.58c-.03-2.54-.96-4.7-2.84-6.4-1.9-1.84-4.15-2.75-6.77-2.75-2.65 0-4.9.83-6.8 2.62-1.9 1.7-2.87 3.87-2.9 6.4v5.66h-5.15c-.24 0-.43.1-.58.25-.16.17-.22.34-.22.6V1348c0 .43.34.8.8.8h29.6c.46 0 .8-.37.8-.8v-25.28c0-.2-.06-.38-.22-.54zm-23.46-5.9c.03-2.13.8-3.88 2.37-5.3 1.6-1.5 3.52-2.2 5.73-2.2 2.22 0 4.12.75 5.7 2.25 1.54 1.4 2.32 3.2 2.32 5.32v5.58H219.9zm22.1 30.94h-28.03v-23.7h28z" stroke="#fff" stroke-opacity="0" fill="#fff"/><path d="M227.2 1337.3v6.25h1.6v-6.23c2.13-.4 3.62-2.2 3.63-4.35 0-2.43-1.97-4.4-4.4-4.43-2.2-.03-4.06 1.5-4.44 3.68-.42 2.4 1.2 4.68 3.6 5.1zm.82-7.15c.78 0 1.44.27 2 .82.54.56.82 1.22.8 2 .03 1.55-1.2 2.8-2.74 2.82h-.06c-1.56.1-2.92-1.06-3.04-2.62-.12-1.56 1.05-2.93 2.6-3.03.16-.02.28-.02.44 0z" stroke="#fff" stroke-opacity="0" fill="#fff"/><use xlink:href="#l" transform="matrix(1,0,0,1,271,1320) translate(0 10.6640625)"/><path d="M790 314.7v86.24" stroke="#666" stroke-width="2" fill="none"/><path d="M790 299.45l4.64 14.26h-9.28zM790 416.2l-4.64-14.26h9.28z" stroke="#666" stroke-width="2" fill="#666"/><path d="M140.54 600H1460v960H140.54z" stroke="#248814" stroke-width="2" fill-opacity="0"/><path d="M140.54 600h56v56h-56v-56z" stroke="#fff" stroke-opacity="0" fill="#248814"/><path d="M172.3 628.3h-1.2v-1.1c-.1-1.73-1.46-3.07-3.18-3.2-1.9-.13-3.54 1.3-3.67 3.2v1.07h-1.18c-.45 0-.8.36-.8.8v6.13c0 .44.35.8.8.8h9.22c.44 0 .8-.36.8-.8v-6.1c0-.44-.36-.8-.8-.8zm-6.4-1.06c.1-1.02 1-1.77 2-1.67.9.08 1.58.77 1.66 1.67v1.06h-3.7zm5.65 7.08h-7.68v-4.42h7.62z" stroke="#fff" stroke-opacity="0" fill="#fff"/><path d="M182.8 625.74c-.08-2.44-1.58-4.47-3.87-5.3-1.58-.46-3.16-.13-4.4.9-.67-1.44-1.46-2.6-2.6-3.75-3.23-3.36-7.93-4.3-12.18-2.4-4.03 1.9-6.4 5.63-6.53 10.05v.7c-3.4.98-5.66 4.08-5.5 7.65v.63c.38 4.28 3.92 7.52 8.2 7.47h26s7.42-.63 7.42-8.1c.04-3.9-2.67-7.2-6.54-7.86zm-.95 14.4h-25.93c-3.45.05-6.28-2.53-6.57-5.97v-.52c-.17-3.05 1.9-5.7 4.9-6.3.38-.12.63-.48.6-.9-.05-.4-.05-.73 0-1.14.08-3.78 2.1-6.94 5.53-8.6 1.24-.56 2.4-.8 3.82-.84 2.63.08 4.87 1.04 6.7 2.94 1.25 1.3 2.04 2.6 2.62 4.3.05.15.13.28.25.37.38.27.88.2 1.13-.17.83-1.18 2.24-1.67 3.62-1.3 1.8.72 2.87 2.4 2.83 4.32-.1.4.2.82.62.9 3.58.36 6.2 3.55 5.83 7.12-.3 3.13-2.7 5.52-5.83 5.85z" stroke="#fff" stroke-opacity="0" fill="#fff"/><use xlink:href="#m" transform="matrix(1,0,0,1,211.53571428571433,620) translate(0 14.222222222222223)"/><use xlink:href="#n" transform="matrix(1,0,0,1,211.53571428571433,620) translate(0 33.777777777777786)"/><path d="M100 500h1400v1300H100z" stroke="#232f3e" stroke-width="2" fill-opacity="0"/><path d="M100 500h56v56h-56v-56z" stroke="#fff" stroke-opacity="0" fill="#232f3e"/><path d="M118.22 525.87c-.04.48.05.87.17 1.34.1.4.28.7.48 1.07.04.1.08.22.08.34 0 .2-.12.36-.28.46l-.95.62c-.12.08-.25.13-.37.13-.16 0-.33-.06-.45-.2-.2-.2-.36-.43-.52-.7-.17-.25-.3-.53-.46-.86-1.1 1.37-2.62 2.1-4.4 2.06-1.14.06-2.12-.3-2.95-1.08-.78-.8-1.15-1.76-1.1-2.85-.05-1.23.4-2.28 1.35-3.08 1.07-.85 2.3-1.23 3.66-1.16.57 0 1.02.02 1.6.1.57.1 1.1.2 1.72.33v-1.1c.08-.88-.16-1.67-.7-2.37-.74-.56-1.56-.8-2.46-.7-.53 0-1.03.07-1.6.2-.58.13-1.03.3-1.6.5l-.5.2h-.24c-.2 0-.33-.16-.33-.45v-.75c0-.18.04-.34.12-.5.12-.16.24-.26.4-.33.66-.3 1.2-.5 1.9-.67.77-.2 1.47-.3 2.3-.28 1.47-.13 2.78.26 3.9 1.2.94 1.05 1.35 2.28 1.22 3.67zm-6.07 2.28c.57 0 1.06-.1 1.6-.28.57-.2 1.02-.5 1.44-.96.23-.27.4-.56.48-.93.12-.45.16-.84.16-1.3V524c-.53-.1-.94-.17-1.43-.2H113c-.8-.08-1.55.12-2.2.58-.54.45-.8 1.04-.75 1.73-.04.6.13 1.16.54 1.6.44.38.97.52 1.55.45zm12 1.6c-.22 0-.42-.03-.6-.15-.15-.17-.23-.36-.32-.6l-3.5-11.5-.1-.62c0-.24.1-.37.36-.37h1.47c.2 0 .37.04.57.15.17.18.25.37.3.6l2.5 9.96 2.38-9.93c0-.24.08-.44.28-.6.17-.12.37-.16.58-.15h1.2c.24 0 .4.03.6.15.17.18.25.36.3.6l2.33 9.94 2.56-10c.04-.2.16-.4.33-.58.15-.1.36-.17.56-.14h1.4c.16 0 .33.1.37.3v.31s0 .2-.12.35l-3.6 11.53c-.05.22-.13.42-.3.6-.2.1-.36.14-.57.13h-1.27c-.25.04-.45-.02-.62-.15-.16-.16-.25-.36-.3-.6l-2.3-9.6-2.3 9.6c-.03.24-.1.44-.27.6-.2.13-.4.2-.62.16zm19.2.38c-.82 0-1.5-.07-2.3-.25-.65-.13-1.14-.3-1.72-.6-.2-.1-.37-.23-.45-.42-.08-.14-.12-.28-.12-.43v-.75c0-.3.12-.46.32-.46h.3l.36.16c.58.23 1.03.4 1.6.5.62.14 1.15.2 1.8.2.8.05 1.5-.1 2.2-.5.48-.3.77-.8.72-1.4.05-.4-.12-.76-.36-1.04-.46-.4-.95-.65-1.52-.8l-2.18-.68c-.94-.25-1.73-.73-2.38-1.5-.5-.65-.74-1.35-.74-2.18 0-.6.12-1.08.4-1.6.3-.5.63-.9 1.08-1.22.5-.38.98-.6 1.6-.78.66-.18 1.2-.26 1.9-.25.32-.03.6-.03.97 0l1 .16.8.22.67.26c.16.1.28.22.45.38.08.15.12.3.12.5v.7c0 .32-.12.47-.37.47-.2-.03-.37-.08-.57-.18-.95-.42-1.8-.6-2.88-.58-.7-.04-1.3.1-1.97.4-.5.3-.74.8-.7 1.36 0 .4.13.76.46 1.05.5.4.98.65 1.6.82l2.1.67c.94.24 1.67.7 2.3 1.44.48.64.7 1.3.7 2.1 0 .63-.13 1.17-.38 1.73-.3.55-.62.95-1.1 1.32-.5.4-1 .66-1.6.84-.75.23-1.4.33-2.15.34zM146.1 537.48c-5.6 3.82-11.36 5.58-18.15 5.56-8.54.05-15.82-2.74-22.16-8.45-.5-.42 0-1 .48-.68 7.07 4.05 14.03 5.9 22.2 5.9 6.1-.04 11.3-1.1 16.93-3.47.83-.35 1.52.55.7 1.13z" stroke="#fff" stroke-opacity="0" fill="#fff"/><path d="M148.16 535.2c-.64-.82-4.16-.38-5.75-.2-.46 0-.53-.36-.1-.66 2.8-1.98 7.42-1.4 8-.74.6.67-.14 5.28-2.78 7.5-.4.32-.78.13-.6-.3.54-1.52 1.86-4.83 1.24-5.6z" stroke="#fff" stroke-opacity="0" fill="#fff"/><use xlink:href="#o" transform="matrix(1,0,0,1,171,520) translate(0 14.222222222222223)"/><use xlink:href="#p" transform="matrix(1,0,0,1,171,520) translate(45.333333333333336 14.222222222222223)"/><path d="M353.15 77c0-4.42 3.58-8 8-8h836.75c4.4 0 8 3.58 8 8v25.16c0 4.4-3.6 8-8 8H361.15c-4.42 0-8-3.6-8-8z" stroke="#000" stroke-opacity="0" stroke-width="2" fill="#fff" fill-opacity="0"/><use xlink:href="#q" transform="matrix(1,0,0,1,357.14655278534315,73) translate(184.5655555555556 25.782777777777778)"/><use xlink:href="#r" transform="matrix(1,0,0,1,357.14655278534315,73) translate(251.43222222222226 25.782777777777778)"/><use xlink:href="#s" transform="matrix(1,0,0,1,357.14655278534315,73) translate(363.24086419753087 25.782777777777778)"/><use xlink:href="#t" transform="matrix(1,0,0,1,357.14655278534315,73) translate(422.8235802469136 25.782777777777778)"/><use xlink:href="#u" transform="matrix(1,0,0,1,357.14655278534315,73) translate(585.6927160493826 25.782777777777778)"/><use xlink:href="#v" transform="matrix(1,0,0,1,357.14655278534315,73) translate(611.8420987654321 25.782777777777778)"/><path d="M536.6 108.8h493.13M536.63 108.8h-1.03M1029.7 108.8h1.03" stroke="#a9afb8" stroke-width="2" fill="none"/><path d="M353.15 118.16c0-4.42 3.58-8 8-8h837.7c4.42 0 8 3.58 8 8V121c0 4.42-3.58 8-8 8h-837.7c-4.42 0-8-3.58-8-8z" stroke="#000" stroke-opacity="0" stroke-width="2" fill="#fff" fill-opacity="0"/><use xlink:href="#w" transform="matrix(1,0,0,1,357.1465527853436,114.15522395689881) translate(293.14724279835394 14.917037037037037)"/><use xlink:href="#x" transform="matrix(1,0,0,1,357.1465527853436,114.15522395689881) translate(349.1061934156379 14.917037037037037)"/><use xlink:href="#y" transform="matrix(1,0,0,1,357.1465527853436,114.15522395689881) translate(428.9443621399177 14.917037037037037)"/><use xlink:href="#z" transform="matrix(1,0,0,1,357.1465527853436,114.15522395689881) translate(441.3938477366255 14.917037037037037)"/><use xlink:href="#A" transform="matrix(1,0,0,1,357.1465527853436,114.15522395689881) translate(499.9871604938271 14.917037037037037)"/><use xlink:href="#B" transform="matrix(1,0,0,1,357.1465527853436,114.15522395689881) translate(525.480987654321 14.917037037037037)"/><path d="M790 900c-22.08 0-40-17.92-40-40s17.92-40 40-40 40 17.92 40 40-17.92 40-40 40zm0-76.8c-20.32 0-36.8 16.48-36.8 36.8 0 20.32 16.48 36.8 36.8 36.8 20.32 0 36.8-16.48 36.8-36.8 0-20.32-16.48-36.8-36.8-36.8z" stroke="#fff" stroke-opacity="0" stroke-width="3" fill="#693cc5"/><path d="M813.86 871.2h-3.06v-6.4c0-.9-.7-1.6-1.58-1.6h-4.83v-6.4c0-.9-.73-1.58-1.6-1.58h-11.2v-4.8h11.2c.87 0 1.6-.76 1.6-1.6V834.4c0-.9-.73-1.6-1.6-1.6h-25.6c-.88 0-1.6.7-1.6 1.6v14.42c0 .84.72 1.6 1.6 1.6h11.2v4.8h-11.2c-.88 0-1.6.7-1.6 1.6v6.38h-4.78c-.9 0-1.63.7-1.63 1.6v6.4h-3.06c-.87 0-1.58.73-1.58 1.58v8.03c0 .9.7 1.6 1.58 1.6h7.84c.92 0 1.63-.7 1.63-1.6v-8.02c0-.85-.7-1.6-1.62-1.6h-1.58v-4.8h8v4.8h-1.58c-.92 0-1.63.75-1.63 1.6v8.03c0 .9.7 1.6 1.62 1.6h8c.86 0 1.57-.7 1.57-1.6v-8.02c0-.85-.72-1.6-1.58-1.6h-3.2v-6.4c0-.88-.73-1.58-1.64-1.58h-3.16v-4.8h22.36v4.8h-3.16c-.92 0-1.63.7-1.63 1.6v6.4h-3.22c-.86 0-1.58.73-1.58 1.58v8.03c0 .9.72 1.6 1.58 1.6h8c.9 0 1.63-.7 1.63-1.6v-8.02c0-.85-.7-1.6-1.62-1.6h-1.58v-4.8h8v4.8h-1.74c-.86 0-1.58.75-1.58 1.6v8.03c0 .9.72 1.6 1.58 1.6h8.05c.88 0 1.6-.7 1.6-1.6v-8.02-.05c-.06-.85-.78-1.54-1.64-1.54zm-41.46 7.98h-4.63v-4.77h4.63zm12.8-4.77v4.78h-4.8v-4.77zm-6.38-27.22v-11.16h22.36v11.16zm20.78 32h-4.8v-4.77h4.8zm12.63 0h-4.8v-4.77h4.8z" stroke="#fff" stroke-opacity="0" stroke-width="3" fill="#693cc5"/><use xlink:href="#C" transform="matrix(1,0,0,1,720,909) translate(12.049999999999997 14.4)"/><use xlink:href="#D" transform="matrix(1,0,0,1,720,909) translate(57.05 14.4)"/><path d="M740 1640h80v80h-80v-80z" stroke="#fff" stroke-opacity="0" stroke-width="2" fill="#3f8624"/><path d="M755.47 1656.97l7.77 7.8 1.52-1.53-7.8-7.77h5.97v-2.14h-8.53c-.6 0-1.07.48-1.07 1.07v8.53h2.14zM805.6 1653.33h-8.53v2.14h5.96l-7.8 7.77 1.53 1.52 7.77-7.8v5.97h2.14v-8.53c0-.6-.48-1.07-1.07-1.07zM763.24 1695.24l-7.77 7.8v-5.97h-2.14v8.53c0 .6.48 1.07 1.07 1.07h8.53v-2.14h-5.96l7.8-7.77zM804.53 1703.03l-7.77-7.8-1.52 1.53 7.8 7.77h-5.97v2.14h8.53c.6 0 1.07-.48 1.07-1.07v-8.53h-2.14zM771.57 1664.8c3.95-1.75 8.35-.9 11.34 2.22 1.34 1.36 2.2 2.78 2.8 4.6.1.17.2.34.37.46.46.36 1.15.27 1.47-.2.7-.95 1.7-1.5 2.85-1.5 1.64 0 3.6 1.26 3.84 4.8 0 .5.37.9.83 1 4.17.88 6.3 3.2 6.3 6.8 0 3.44-1.53 5.5-4.65 6.26l.5 2.07c4.04-.97 6.25-3.93 6.25-8.32 0-4.35-2.53-7.46-7.16-8.7-.54-4.15-3.3-6.02-5.9-6.02-1.25-.03-2.3.33-3.32 1.07-.7-1.5-1.5-2.7-2.7-3.88-3.6-3.74-8.86-4.77-13.64-2.67-4.4 2.07-7.1 6.2-7.2 11.08v.6c-3.72 1.18-6.1 4.56-5.97 8.44v.62c.23 3.67 2.53 6.66 6.06 7.82l.7-2.02c-2.67-.85-4.42-3.14-4.65-5.92v-.5c-.13-3.23 2.07-6.05 5.28-6.64.46-.12.78-.56.78-1.07-.04-.45-.1-.8-.1-1.25.1-4.03 2.3-7.4 5.93-9.15z" stroke="#fff" stroke-opacity="0" stroke-width="2" fill="#fff"/><path d="M797 1685.68c.13-.34.07-.7-.15-.97-.18-.27-.5-.44-.86-.44h-3.2c-.12-.95-.5-1.74-1.2-2.4-.53-.56-1.18-.82-1.95-.8H778.7c-.28-.85-.8-1.94-1.65-2.13H772.6c-.96 0-1.58 1.2-1.92 2.13h-1.27c-.8-.02-1.47.22-2.03.77-.8.8-1.24 1.8-1.24 2.96v13.33c0 .58.47 1.07 1.06 1.07h24.52c.5 0 .86-.28 1.02-.73zm-2.5.7l-1.7 5.18v-5.17zm-3.83 10.7h-22.4v-12.3c0-.52.15-.98.52-1.37.12-.15.3-.2.5-.2h2.12c.56 0 1.02-.44 1.06-1 .12-.4.27-.75.46-1.14h3.43c.2.37.3.7.4 1.08 0 .58.5 1.07 1.1 1.07h11.8c.16 0 .32.07.4.2.4.4.6.86.6 1.4z" stroke="#fff" stroke-opacity="0" stroke-width="2" fill="#fff"/><use xlink:href="#E" transform="matrix(1,0,0,1,710.0000000000002,1729) translate(52.525 14.4)"/><path d="M362.14 1382.9h75.72v75.73h-75.72v-75.73z" stroke="#fff" stroke-opacity="0" stroke-width="2" fill="#3b48cc"/><path d="M387.76 1412.72c-7.82 0-16.15-2.37-16.15-6.76 0-4.4 8.3-6.77 16.16-6.77 7.85 0 16.16 2.36 16.16 6.76s-8.34 6.76-16.16 6.76zm0-11.5c-8.08 0-14.12 2.5-14.12 4.74s6.04 4.75 14.12 4.75c8.08 0 14.15-2.5 14.15-4.74 0-2.25-6.06-4.75-14.14-4.75z" stroke="#fff" stroke-opacity="0" stroke-width="2" fill="#fff"/><path d="M401.93 1406.26h2.02v17.16h-2.02v-17.16zM387.75 1445.5c-7.82 0-16.15-2.35-16.15-6.7v-32.54h2v32.58c0 2.23 6.07 4.7 14.15 4.7s14.12-2.47 14.12-4.7v-3.3h2.04v3.3c.04 4.35-8.33 6.67-16.15 6.67z" stroke="#fff" stroke-opacity="0" stroke-width="2" fill="#fff"/><path d="M387.76 1424.13c-7.82 0-16.15-2.37-16.15-6.76h2.04c0 2.24 6.04 4.74 14.12 4.74 8.08 0 14.15-2.5 14.15-4.73h2.02c-.03 4.4-8.34 6.76-16.16 6.76zM387.82 1435.24c-7.8 0-16.14-2.37-16.14-6.77h2.02c0 2.24 6.05 4.75 14.12 4.75 3.48.05 6.46-.38 9.78-1.42l.63 1.9c-3.53 1.12-6.7 1.58-10.4 1.54z" stroke="#fff" stroke-opacity="0" stroke-width="2" fill="#fff"/><path d="M411.46 1446.4c-.54 0-1-.45-1-1.03 0-6.93-7.93-14.88-14.9-14.88-.57 0-1-.45-1-1.02 0-.54.43-1.02 1-1.02 6.97 0 14.9-7.9 14.9-14.88 0-.57.46-1 1-1s1.02.43 1.02 1c0 6.97 7.9 14.88 14.88 14.88.57 0 1 .48 1 1.02 0 .57-.43 1-1 1-6.97 0-14.88 7.93-14.88 14.9 0 .57-.48 1-1.02 1zm-10.96-16.92c5.14 2.2 8.8 5.85 10.96 11 2.2-5.2 5.82-8.8 11-11-5.18-2.17-8.8-5.82-11-11-2.16 5.18-5.82 8.8-10.96 11zM416.06 1405.25h2.02v6.06h-2.02v-6.05z" stroke="#fff" stroke-opacity="0" stroke-width="2" fill="#fff"/><path d="M414.05 1407.27h6.05v2.02h-6.05v-2.03zM404.96 1395.15h2.02v6.06h-2.02v-6.05z" stroke="#fff" stroke-opacity="0" stroke-width="2" fill="#fff"/><path d="M402.94 1397.17H409v2.02h-6.06v-2.03z" stroke="#fff" stroke-opacity="0" stroke-width="2" fill="#fff"/><use xlink:href="#F" transform="matrix(1,0,0,1,332.1354719013159,1467.6335986166694) translate(7.6499999999999915 14.4)"/><use xlink:href="#G" transform="matrix(1,0,0,1,332.1354719013159,1467.6335986166694) translate(74.45 14.4)"/><path d="M400 880c-22.08 0-40-17.92-40-40s17.92-40 40-40 40 17.92 40 40-17.92 40-40 40zm0-76.56c-20.24 0-36.56 16.32-36.56 36.56 0 20.24 16.32 36.56 36.56 36.56 20.24 0 36.56-16.32 36.56-36.56 0-20.24-16.32-36.56-36.56-36.56z" stroke="#fff" stroke-opacity="0" fill="#693cc5"/><path d="M404.8 862.45h-14.04v-3.42h12.33v-34.86h-12.34v-3.42h14.03c.93 0 1.7.75 1.7 1.7v38.3c0 .95-.77 1.7-1.7 1.7z" stroke="#fff" stroke-opacity="0" fill="#693cc5"/><path d="M390.42 839.9h30.3v3.4h-30.3v-3.4zM379.25 830.54c-.27 0-.5-.05-.73-.18-.6-.28-.97-.86-.97-1.52v-12.77c0-.67.36-1.24.97-1.53.6-.3 1.27-.23 1.8.2l7.97 6.38c.4.34.64.8.64 1.33s-.23 1-.65 1.32l-7.97 6.4c-.32.25-.67.37-1.08.37zm1.7-10.94v5.7l3.56-2.85zM379.25 849.7c-.27 0-.5-.06-.73-.2-.6-.27-.97-.85-.97-1.5V835.2c0-.68.36-1.24.97-1.53.6-.3 1.27-.24 1.8.18l7.97 6.4c.4.33.64.78.64 1.32 0 .53-.23 1-.65 1.32l-7.97 6.4c-.32.25-.67.37-1.08.37zm1.7-10.95v5.7l3.56-2.85z" stroke="#fff" stroke-opacity="0" fill="#693cc5"/><path d="M422.33 851.27c-.23 0-.42-.04-.64-.12-.67-.27-1.07-.87-1.07-1.6v-15.94c0-.92.75-1.7 1.7-1.7.46 0 .87.18 1.22.5l7.98 8c.65.66.65 1.73 0 2.4l-7.98 7.98c-.35.33-.74.5-1.22.5zm1.7-13.6v7.73l3.9-3.87zM379.26 867.23c-.28 0-.5-.04-.74-.17-.6-.28-.97-.86-.97-1.52v-12.77c0-.95.75-1.7 1.7-1.7.4 0 .76.12 1.08.38l7.96 6.37c.72.58.84 1.67.25 2.4-.08.1-.16.17-.26.25l-7.97 6.4c-.32.25-.68.36-1.07.36zm1.7-10.93v5.7l3.55-2.85z" stroke="#fff" stroke-opacity="0" fill="#693cc5"/><use xlink:href="#H" transform="matrix(1,0,0,1,330,889) translate(16.924999999999997 14.4)"/><use xlink:href="#I" transform="matrix(1,0,0,1,330,889) translate(56.125 14.4)"/><path d="M850.28 1060h80v80h-80v-80z" stroke="#fff" stroke-opacity="0" stroke-width="2" fill="#d86613"/><path d="M876.72 1098.83c.1.1.15.18.27.24.14.15.3.27.47.4l.12.07c.17.1.35.18.52.27l.33.16h.24l.26.12c.5.18 1.05.4 1.67.6l1 .26.5.15c2.8.68 5.25.98 8.15.95 4.4.1 8.12-.63 12.16-2.33 1.73-.8 2.74-2.38 2.77-4.28v-15.3c0-.67-.34-1.23-.94-1.53l-13.26-6.15c-.45-.24-.96-.24-1.4 0l-13.3 6.16c-.6.3-.95.87-.95 1.53v15.36c0 1.2.4 2.2 1.16 3.12.07.1.13.15.22.2zm5.44.15l-.9-.27c-.57-.17-1.04-.35-1.5-.5l-.38-.17-.36-.15-.36-.18-.27-.2-.13-.16-.1-.1-.08-.08c-.42-.5-.63-1.04-.63-1.7v-14.05l11.74 5.52v13.04c-2.32-.03-4.3-.3-6.57-.83zm19.4-1.13c-3.4 1.46-6.53 2.1-10.23 2.14v-12.87l11.73-5.36v13.67c.03 1.07-.53 1.96-1.5 2.4zm-11.28-23.4l11.8 5.5-11.62 5.2-.06-.05-11.47-5.33z" stroke="#fff" stroke-opacity="0" stroke-width="2" fill="#fff"/><path d="M908.7 1089.53l-.56 2.04c4.77 1.4 7.77 3.42 7.77 5.23 0 3.53-10.53 7.47-25.62 7.47-15.1 0-25.63-3.94-25.63-7.47 0-1.8 3-3.82 7.77-5.23l-.55-2.04c-6 1.75-9.32 4.35-9.32 7.27 0 6.23 14.3 9.6 27.73 9.6 13.42 0 27.73-3.37 27.73-9.6 0-2.92-3.3-5.5-9.3-7.27zM908.64 1109.76l-4.96-2.15c-.4-.17-.8-.17-1.2 0l-5.07 2.2c-.46.24-.7.66-.7 1.17v5.5l-4.76-2.06c-.4-.2-.8-.2-1.2 0l-4.78 2.07v-5.52c0-.53-.3-1-.76-1.2l-5-2.14c-.36-.17-.8-.17-1.2 0l-5.06 2.2c-.47.24-.73.66-.73 1.17v6.5c0 .54.3.98.8 1.2l4.97 2.13h.1c.2.08.34.12.56.12.18 0 .36-.02.5-.12l4.82-2.07v5.5c0 .53.3.97.76 1.2l4.97 2.14h.08c.18.08.36.12.58.12.18 0 .36-.05.54-.13l5.07-2.18c.47-.26.72-.68.76-1.2v-5.47l4.7 2.07h.16c.18.08.36.12.57.14.2-.02.33-.06.48-.14l5.1-2.13c.48-.22.74-.66.74-1.17v-6.55c0-.53-.3-1-.8-1.2zm-5.58-.1l2.9 1.25-2.72 1.12-2.82-1.2zm-11.73 6.8l2.9 1.24-2.72 1.07-2.82-1.17zm-11.74-6.8l2.9 1.25-2.73 1.08-2.83-1.17zm-4.3 2.78l3.24 1.36v4.5l-3.23-1.4zm5.38 5.83V1114l3.18-1.3v4.25zm6.37.97l3.23 1.37v4.46l-3.23-1.37zm5.33 5.84v-4.28l3.22-1.32v4.27zm6.4-12.64l3.2 1.36v4.5l-3.2-1.4zm5.33 5.85V1114l3.24-1.33v4.25z" stroke="#fff" stroke-opacity="0" stroke-width="2" fill="#fff"/><use xlink:href="#J" transform="matrix(1,0,0,1,820.2803685922677,1149) translate(18.074999999999996 14.4)"/><use xlink:href="#K" transform="matrix(1,0,0,1,820.2803685922677,1149) translate(60.025 14.4)"/><path d="M438.32 1151.3h-76.64c-.88 0-1.68-.77-1.68-1.7v-47.9c0-.93.8-1.7 1.68-1.7h76.64c.88 0 1.68.77 1.68 1.7v47.9c0 .93-.8 1.7-1.68 1.7zm-74.88-3.4h73.12v-44.5h-73.12z" stroke="#fff" stroke-opacity="0" fill="#d86613"/><path d="M369.58 1108.1h3.4v35.13h-3.4v-35.14zM379.15 1108.1h3.4v35.13h-3.4v-35.14zM388.73 1108.1h3.4v35.13h-3.4v-35.14zM398.3 1108.1h3.4v35.13h-3.4v-35.14zM407.88 1108.1h3.4v35.13h-3.4v-35.14zM417.45 1108.1h3.4v35.13h-3.4v-35.14zM427.03 1108.1h3.4v35.13h-3.4v-35.14z" stroke="#fff" stroke-opacity="0" fill="#d86613"/><use xlink:href="#L" transform="matrix(1,0,0,1,330,1160.3) translate(30.549999999999997 14.4)"/><use xlink:href="#M" transform="matrix(1,0,0,1,330,1160.3) translate(72.5 14.4)"/><path d="M440.86 1420.77c0 .83-.67 1.5-1.5 1.5-.82 0-1.5-.67-1.5-1.5s.68-1.5 1.5-1.5c.83 0 1.5.67 1.5 1.5zm11.9 0c0 .83-.67 1.5-1.5 1.5-.82 0-1.5-.67-1.5-1.5s.68-1.5 1.5-1.5c.83 0 1.5.67 1.5 1.5zm11.9 0c0 .83-.67 1.5-1.5 1.5-.82 0-1.5-.67-1.5-1.5s.68-1.5 1.5-1.5c.83 0 1.5.67 1.5 1.5zm11.9 0c0 .83-.66 1.5-1.5 1.5-.82 0-1.5-.67-1.5-1.5s.68-1.5 1.5-1.5c.84 0 1.5.67 1.5 1.5zm11.9 0c0 .83-.66 1.5-1.5 1.5-.82 0-1.5-.67-1.5-1.5s.68-1.5 1.5-1.5c.84 0 1.5.67 1.5 1.5zm11.9 0c0 .83-.66 1.5-1.5 1.5-.82 0-1.5-.67-1.5-1.5s.68-1.5 1.5-1.5c.84 0 1.5.67 1.5 1.5zm11.9 0c0 .83-.66 1.5-1.5 1.5-.82 0-1.5-.67-1.5-1.5s.68-1.5 1.5-1.5c.84 0 1.5.67 1.5 1.5zm11.9 0c0 .83-.66 1.5-1.5 1.5-.82 0-1.5-.67-1.5-1.5s.68-1.5 1.5-1.5c.84 0 1.5.67 1.5 1.5zm11.9 0c0 .83-.66 1.5-1.5 1.5-.82 0-1.5-.67-1.5-1.5s.68-1.5 1.5-1.5c.84 0 1.5.67 1.5 1.5zm11.9 0c0 .83-.66 1.5-1.5 1.5-.82 0-1.5-.67-1.5-1.5s.68-1.5 1.5-1.5c.84 0 1.5.67 1.5 1.5zm11.9 0c0 .83-.66 1.5-1.5 1.5-.82 0-1.5-.67-1.5-1.5s.68-1.5 1.5-1.5c.84 0 1.5.67 1.5 1.5zm11.9 0c0 .83-.66 1.5-1.5 1.5-.8 0-1.5-.67-1.5-1.5s.7-1.5 1.5-1.5c.84 0 1.5.67 1.5 1.5zm11.9 0c0 .83-.66 1.5-1.5 1.5-.8 0-1.5-.67-1.5-1.5s.7-1.5 1.5-1.5c.84 0 1.5.67 1.5 1.5zm11.92 0c0 .83-.68 1.5-1.5 1.5-.83 0-1.5-.67-1.5-1.5s.67-1.5 1.5-1.5c.82 0 1.5.67 1.5 1.5zm11.9 0c0 .83-.67 1.5-1.5 1.5s-1.5-.67-1.5-1.5.67-1.5 1.5-1.5 1.5.67 1.5 1.5zm11.9 0c0 .83-.67 1.5-1.5 1.5s-1.5-.67-1.5-1.5.67-1.5 1.5-1.5 1.5.67 1.5 1.5zm11.9 0c0 .83-.67 1.5-1.5 1.5s-1.5-.67-1.5-1.5.67-1.5 1.5-1.5 1.5.67 1.5 1.5zm11.9 0c0 .83-.67 1.5-1.5 1.5s-1.5-.67-1.5-1.5.67-1.5 1.5-1.5 1.5.67 1.5 1.5zm11.9 0c0 .83-.67 1.5-1.5 1.5s-1.5-.67-1.5-1.5.67-1.5 1.5-1.5 1.5.67 1.5 1.5zm11.9 0c0 .83-.67 1.5-1.5 1.5s-1.5-.67-1.5-1.5.67-1.5 1.5-1.5 1.5.67 1.5 1.5zm11.9 0c0 .83-.67 1.5-1.5 1.5s-1.5-.67-1.5-1.5.67-1.5 1.5-1.5 1.5.67 1.5 1.5zm11.9 0c0 .83-.67 1.5-1.5 1.5s-1.5-.67-1.5-1.5.67-1.5 1.5-1.5 1.5.67 1.5 1.5zm11.9 0c0 .83-.67 1.5-1.5 1.5-.82 0-1.5-.67-1.5-1.5s.68-1.5 1.5-1.5c.83 0 1.5.67 1.5 1.5zm11.9 0c0 .83-.67 1.5-1.5 1.5-.82 0-1.5-.67-1.5-1.5s.68-1.5 1.5-1.5c.83 0 1.5.67 1.5 1.5zm11.9 0c0 .83-.67 1.5-1.5 1.5-.82 0-1.5-.67-1.5-1.5s.68-1.5 1.5-1.5c.83 0 1.5.67 1.5 1.5zm11.9 0c0 .83-.67 1.5-1.5 1.5-.82 0-1.5-.67-1.5-1.5s.68-1.5 1.5-1.5c.83 0 1.5.67 1.5 1.5zm11.9 0c0 .83-.66 1.5-1.5 1.5-.82 0-1.5-.67-1.5-1.5s.68-1.5 1.5-1.5c.84 0 1.5.67 1.5 1.5zm11.9 0c0 .83-.66 1.5-1.5 1.5-.82 0-1.5-.67-1.5-1.5s.68-1.5 1.5-1.5c.84 0 1.5.67 1.5 1.5zm11.9 0c0 .83-.66 1.5-1.5 1.5-.82 0-1.5-.67-1.5-1.5s.68-1.5 1.5-1.5c.84 0 1.5.67 1.5 1.5zm11.9 0c0 .83-.66 1.5-1.5 1.5-.82 0-1.5-.67-1.5-1.5s.68-1.5 1.5-1.5c.84 0 1.5.67 1.5 1.5zm11.9 0c0 .83-.66 1.5-1.5 1.5-.82 0-1.5-.67-1.5-1.5s.68-1.5 1.5-1.5c.84 0 1.5.67 1.5 1.5zm11.9 0c0 .83-.66 1.5-1.5 1.5-.82 0-1.5-.67-1.5-1.5s.68-1.5 1.5-1.5c.84 0 1.5.67 1.5 1.5zm11.9 0c0 .83-.66 1.5-1.5 1.5-.82 0-1.5-.67-1.5-1.5s.68-1.5 1.5-1.5c.84 0 1.5.67 1.5 1.5zm11.9 0c0 .83-.66 1.5-1.5 1.5-.82 0-1.5-.67-1.5-1.5s.68-1.5 1.5-1.5c.84 0 1.5.67 1.5 1.5zm11.9 0c0 .83-.66 1.5-1.5 1.5-.8 0-1.5-.67-1.5-1.5s.7-1.5 1.5-1.5c.84 0 1.5.67 1.5 1.5zm11.9 0c0 .83-.66 1.5-1.5 1.5-.8 0-1.5-.67-1.5-1.5s.7-1.5 1.5-1.5c.84 0 1.5.67 1.5 1.5zm11.92 0c0 .83-.68 1.5-1.5 1.5-.83 0-1.5-.67-1.5-1.5s.67-1.5 1.5-1.5c.82 0 1.5.67 1.5 1.5zm11.9 0c0 .83-.68 1.5-1.5 1.5-.83 0-1.5-.67-1.5-1.5s.67-1.5 1.5-1.5c.82 0 1.5.67 1.5 1.5zm11.9 0c0 .83-.67 1.5-1.5 1.5s-1.5-.67-1.5-1.5.67-1.5 1.5-1.5 1.5.67 1.5 1.5zm11.9 0c0 .83-.67 1.5-1.5 1.5s-1.5-.67-1.5-1.5.67-1.5 1.5-1.5 1.5.67 1.5 1.5zm11.9 0c0 .83-.67 1.5-1.5 1.5s-1.5-.67-1.5-1.5.67-1.5 1.5-1.5 1.5.67 1.5 1.5zm11.9 0c0 .83-.67 1.5-1.5 1.5s-1.5-.67-1.5-1.5.67-1.5 1.5-1.5 1.5.67 1.5 1.5zm11.9 0c0 .83-.67 1.5-1.5 1.5s-1.5-.67-1.5-1.5.67-1.5 1.5-1.5 1.5.67 1.5 1.5zm11.9 0c0 .83-.67 1.5-1.5 1.5s-1.5-.67-1.5-1.5.67-1.5 1.5-1.5 1.5.67 1.5 1.5zm11.9 0c0 .83-.67 1.5-1.5 1.5s-1.5-.67-1.5-1.5.67-1.5 1.5-1.5 1.5.67 1.5 1.5zm11.9 0c0 .83-.67 1.5-1.5 1.5s-1.5-.67-1.5-1.5.67-1.5 1.5-1.5 1.5.67 1.5 1.5zm11.9 0c0 .83-.67 1.5-1.5 1.5-.82 0-1.5-.67-1.5-1.5s.68-1.5 1.5-1.5c.83 0 1.5.67 1.5 1.5zm11.9 0c0 .83-.67 1.5-1.5 1.5-.82 0-1.5-.67-1.5-1.5s.68-1.5 1.5-1.5c.83 0 1.5.67 1.5 1.5zm11.9 0c0 .83-.67 1.5-1.5 1.5-.82 0-1.5-.67-1.5-1.5s.68-1.5 1.5-1.5c.83 0 1.5.67 1.5 1.5zm11.9 0c0 .83-.66 1.5-1.5 1.5-.82 0-1.5-.67-1.5-1.5s.68-1.5 1.5-1.5c.84 0 1.5.67 1.5 1.5zm11.9 0c0 .83-.66 1.5-1.5 1.5-.82 0-1.5-.67-1.5-1.5s.68-1.5 1.5-1.5c.84 0 1.5.67 1.5 1.5zm11.9 0c0 .83-.66 1.5-1.5 1.5-.82 0-1.5-.67-1.5-1.5s.68-1.5 1.5-1.5c.84 0 1.5.67 1.5 1.5zm11.9 0c0 .83-.66 1.5-1.5 1.5-.82 0-1.5-.67-1.5-1.5s.68-1.5 1.5-1.5c.84 0 1.5.67 1.5 1.5zm11.9 0c0 .83-.66 1.5-1.5 1.5-.82 0-1.5-.67-1.5-1.5s.68-1.5 1.5-1.5c.84 0 1.5.67 1.5 1.5zm11.9 0c0 .83-.66 1.5-1.5 1.5-.82 0-1.5-.67-1.5-1.5s.68-1.5 1.5-1.5c.84 0 1.5.67 1.5 1.5zm11.9 0c0 .83-.66 1.5-1.5 1.5-.82 0-1.5-.67-1.5-1.5s.68-1.5 1.5-1.5c.84 0 1.5.67 1.5 1.5zm11.9 0c0 .83-.66 1.5-1.5 1.5-.82 0-1.5-.67-1.5-1.5s.68-1.5 1.5-1.5c.84 0 1.5.67 1.5 1.5zm11.9 0c0 .83-.66 1.5-1.5 1.5-.8 0-1.5-.67-1.5-1.5s.7-1.5 1.5-1.5c.84 0 1.5.67 1.5 1.5zm11.9 0c0 .83-.66 1.5-1.5 1.5-.8 0-1.5-.67-1.5-1.5s.7-1.5 1.5-1.5c.84 0 1.5.67 1.5 1.5zm11.92 0c0 .83-.68 1.5-1.5 1.5-.83 0-1.5-.67-1.5-1.5s.67-1.5 1.5-1.5c.82 0 1.5.67 1.5 1.5z" fill="#333"/><path d="M439.4 1422.27h-1.54v-3h1.54" fill="#333"/><path d="M1157.28 1420.77l-14.26 4.63v-9.27z" stroke="#333" stroke-width="3" fill="#333"/><use xlink:href="#N" transform="matrix(1,0,0,1,710.4778453867717,1424.7690705179853) translate(0.005000000000002558 14.4)"/><path d="M341.5 1125.65H132c-6.63 0-12 5.37-12 12V1668c0 6.63 5.37 12 12 12h589.5" stroke="#333" stroke-width="2" fill="none"/><path d="M356.76 1125.65l-14.26 4.64v-9.3zM736.76 1680l-14.26 4.64v-9.28z" stroke="#333" stroke-width="2" fill="#333"/><path d="M1258.5 1125.65H1468c6.63 0 12 5.37 12 12V1668c0 6.63-5.37 12-12 12H838.5" stroke="#333" stroke-width="2" fill="none"/><path d="M1243.24 1125.65l14.26-4.64v9.3zM823.24 1680l14.26-4.64v9.28z" stroke="#333" stroke-width="2" fill="#333"/><path d="M790 540c-33.27 0-60.28-27-60.28-60.28s27-60.28 60.28-60.28c33.27 0 60.28 27 60.28 60.28 0 33.27-27 60.28-60.28 60.28zm0-115.38c-30.5 0-55.1 24.6-55.1 55.1s24.6 55.1 55.1 55.1 55.1-24.6 55.1-55.1-24.6-55.1-55.1-55.1z" stroke="#fff" stroke-opacity="0" fill="#693cc5"/><path d="M818.85 515.94h-9.62c-1.44 0-2.58-1.14-2.58-2.56v-49.75c-5.2-2.7-10.18-3.92-16.02-4.06-6.4.14-11.75 1.57-17.4 4.63v49.18c0 1.42-1.14 2.56-2.52 2.56h-9.55c-1.44 0-2.57-1.14-2.57-2.56v-55.95c0-.78.3-1.42.88-1.92 9.17-7.53 19.35-11.02 31.17-10.73 11.18-.22 20.8 2.9 29.8 9.53.68.5 1 1.2 1 2v57.08c0 1.42-1.14 2.56-2.58 2.56zm-7.04-5.13h4.47V457.6c-7.86-5.4-16.1-7.83-25.64-7.7-10.12-.27-18.86 2.57-26.9 8.7v52.23h4.4v-48.24c0-1 .5-1.85 1.38-2.28 6.8-3.84 13.34-5.7 21.13-5.83 7.1.2 13.13 1.77 19.42 5.12h.25c.94.43 1.5 1.28 1.5 2.35z" stroke="#fff" stroke-opacity="0" fill="#693cc5"/><use xlink:href="#O" transform="matrix(1,0,0,1,699.7196314077323,549) translate(15.846296296296316 16.177777777777777)"/><use xlink:href="#P" transform="matrix(1,0,0,1,699.7196314077323,549) translate(89.93827160493827 16.177777777777777)"/><path d="M1200 880c-22.08 0-40-17.92-40-40s17.92-40 40-40 40 17.92 40 40-17.92 40-40 40zm0-76.56c-20.24 0-36.56 16.32-36.56 36.56 0 20.24 16.32 36.56 36.56 36.56 20.24 0 36.56-16.32 36.56-36.56 0-20.24-16.32-36.56-36.56-36.56z" stroke="#fff" stroke-opacity="0" fill="#693cc5"/><path d="M1204.8 862.45h-14.04v-3.42h12.33v-34.86h-12.34v-3.42h14.03c.93 0 1.7.75 1.7 1.7v38.3c0 .95-.77 1.7-1.7 1.7z" stroke="#fff" stroke-opacity="0" fill="#693cc5"/><path d="M1190.42 839.9h30.3v3.4h-30.3v-3.4zM1179.25 830.54c-.27 0-.5-.05-.73-.18-.6-.28-.97-.86-.97-1.52v-12.77c0-.67.36-1.24.97-1.53.6-.3 1.27-.23 1.8.2l7.97 6.38c.4.34.64.8.64 1.33s-.23 1-.65 1.32l-7.97 6.4c-.32.25-.67.37-1.08.37zm1.7-10.94v5.7l3.56-2.85zM1179.25 849.7c-.27 0-.5-.06-.73-.2-.6-.27-.97-.85-.97-1.5V835.2c0-.68.36-1.24.97-1.53.6-.3 1.27-.24 1.8.18l7.97 6.4c.4.33.64.78.64 1.32 0 .53-.23 1-.65 1.32l-7.97 6.4c-.32.25-.67.37-1.08.37zm1.7-10.95v5.7l3.56-2.85z" stroke="#fff" stroke-opacity="0" fill="#693cc5"/><path d="M1222.33 851.27c-.23 0-.42-.04-.64-.12-.67-.27-1.07-.87-1.07-1.6v-15.94c0-.92.75-1.7 1.7-1.7.46 0 .87.18 1.22.5l7.98 8c.65.66.65 1.73 0 2.4l-7.98 7.98c-.35.33-.74.5-1.22.5zm1.7-13.6v7.73l3.9-3.87zM1179.26 867.23c-.28 0-.5-.04-.74-.17-.6-.28-.97-.86-.97-1.52v-12.77c0-.95.75-1.7 1.7-1.7.4 0 .76.12 1.08.38l7.96 6.37c.72.58.84 1.67.25 2.4-.08.1-.16.17-.26.25l-7.97 6.4c-.32.25-.68.36-1.07.36zm1.7-10.93v5.7l3.55-2.85z" stroke="#fff" stroke-opacity="0" fill="#693cc5"/><use xlink:href="#H" transform="matrix(1,0,0,1,1130,889) translate(16.924999999999997 14.4)"/><use xlink:href="#I" transform="matrix(1,0,0,1,1130,889) translate(56.125 14.4)"/><path d="M1162.14 1382.9h75.72v75.73h-75.72v-75.73z" stroke="#fff" stroke-opacity="0" stroke-width="2" fill="#3b48cc"/><path d="M1187.76 1412.72c-7.82 0-16.15-2.37-16.15-6.76 0-4.4 8.3-6.77 16.16-6.77 7.85 0 16.16 2.36 16.16 6.76s-8.34 6.76-16.16 6.76zm0-11.5c-8.08 0-14.12 2.5-14.12 4.74s6.04 4.75 14.12 4.75c8.08 0 14.15-2.5 14.15-4.74 0-2.25-6.06-4.75-14.14-4.75z" stroke="#fff" stroke-opacity="0" stroke-width="2" fill="#fff"/><path d="M1201.93 1406.26h2.02v17.16h-2.02v-17.16zM1187.75 1445.5c-7.82 0-16.15-2.35-16.15-6.7v-32.54h2v32.58c0 2.23 6.07 4.7 14.15 4.7s14.12-2.47 14.12-4.7v-3.3h2.04v3.3c.04 4.35-8.33 6.67-16.15 6.67z" stroke="#fff" stroke-opacity="0" stroke-width="2" fill="#fff"/><path d="M1187.76 1424.13c-7.82 0-16.15-2.37-16.15-6.76h2.04c0 2.24 6.04 4.74 14.12 4.74 8.08 0 14.15-2.5 14.15-4.73h2.02c-.03 4.4-8.34 6.76-16.16 6.76zM1187.82 1435.24c-7.8 0-16.14-2.37-16.14-6.77h2.02c0 2.24 6.05 4.75 14.12 4.75 3.48.05 6.46-.38 9.78-1.42l.63 1.9c-3.53 1.12-6.7 1.58-10.4 1.54z" stroke="#fff" stroke-opacity="0" stroke-width="2" fill="#fff"/><path d="M1211.46 1446.4c-.54 0-1-.45-1-1.03 0-6.93-7.93-14.88-14.9-14.88-.57 0-1-.45-1-1.02 0-.54.43-1.02 1-1.02 6.97 0 14.9-7.9 14.9-14.88 0-.57.46-1 1-1s1.02.43 1.02 1c0 6.97 7.9 14.88 14.88 14.88.57 0 1 .48 1 1.02 0 .57-.43 1-1 1-6.97 0-14.88 7.93-14.88 14.9 0 .57-.48 1-1.02 1zm-10.96-16.92c5.14 2.2 8.8 5.85 10.96 11 2.2-5.2 5.82-8.8 11-11-5.18-2.17-8.8-5.82-11-11-2.16 5.18-5.82 8.8-10.96 11zM1216.06 1405.25h2.02v6.06h-2.02v-6.05z" stroke="#fff" stroke-opacity="0" stroke-width="2" fill="#fff"/><path d="M1214.05 1407.27h6.05v2.02h-6.05v-2.03zM1204.96 1395.15h2.02v6.06h-2.02v-6.05z" stroke="#fff" stroke-opacity="0" stroke-width="2" fill="#fff"/><path d="M1202.94 1397.17h6.06v2.02h-6.06v-2.03z" stroke="#fff" stroke-opacity="0" stroke-width="2" fill="#fff"/><use xlink:href="#Q" transform="matrix(1,0,0,1,1132.135471901316,1467.6335986166694) translate(32.599999999999994 14.4)"/><use xlink:href="#R" transform="matrix(1,0,0,1,1132.135471901316,1467.6335986166694) translate(75.45 14.4)"/><path d="M1238.32 1151.3h-76.64c-.88 0-1.68-.77-1.68-1.7v-47.9c0-.93.8-1.7 1.68-1.7h76.64c.88 0 1.68.77 1.68 1.7v47.9c0 .93-.8 1.7-1.68 1.7zm-74.88-3.4h73.12v-44.5h-73.12z" stroke="#fff" stroke-opacity="0" fill="#d86613"/><path d="M1169.58 1108.1h3.4v35.13h-3.4v-35.14zM1179.15 1108.1h3.4v35.13h-3.4v-35.14zM1188.73 1108.1h3.4v35.13h-3.4v-35.14zM1198.3 1108.1h3.4v35.13h-3.4v-35.14zM1207.88 1108.1h3.4v35.13h-3.4v-35.14zM1217.45 1108.1h3.4v35.13h-3.4v-35.14zM1227.03 1108.1h3.4v35.13h-3.4v-35.14z" stroke="#fff" stroke-opacity="0" fill="#d86613"/><use xlink:href="#L" transform="matrix(1,0,0,1,1130,1160.3) translate(30.549999999999997 14.4)"/><use xlink:href="#M" transform="matrix(1,0,0,1,1130,1160.3) translate(72.5 14.4)"/><path d="M790 558.5v243" stroke="#333" stroke-width="2" fill="none"/><path d="M790 543.24l4.64 14.26h-9.28zM790 816.76l-4.64-14.26h9.28z" stroke="#333" stroke-width="2" fill="#333"/><path d="M1200 799V530.63c0-6.62-5.37-12-12-12H854.46" stroke="#333" stroke-width="2" fill="none"/><path d="M1201 800.06l-1-.06-1 .04v-1.07h2" fill="#333"/><path d="M839.2 518.63l14.26-4.63v9.27z" stroke="#333" stroke-width="2" fill="#333"/><path d="M400 799V529.85c0-6.62 5.37-12 12-12h312.88" stroke="#333" stroke-width="2" fill="none"/><path d="M401 800.06l-1-.06-1 .04v-1.07h2" fill="#333"/><path d="M740.15 517.85l-14.27 4.64v-9.28z" stroke="#333" stroke-width="2" fill="#333"/><path d="M1200 1099V938.5" stroke="#333" stroke-width="2" fill="none"/><path d="M1201 1100h-2v-1.03h2" fill="#333"/><path d="M1200 923.24l4.64 14.26h-9.28z" stroke="#333" stroke-width="2" fill="#333"/><path d="M400 1099V938.5" stroke="#333" stroke-width="2" fill="none"/><path d="M401 1100h-2v-1.03h2" fill="#333"/><path d="M400 923.24l4.64 14.26h-9.28z" stroke="#333" stroke-width="2" fill="#333"/><path d="M400 1169.8v194.6" stroke="#333" stroke-width="2" fill="none"/><path d="M400 1154.54l4.64 14.26h-9.28zM400 1379.67l-4.64-14.27h9.28z" stroke="#333" stroke-width="2" fill="#333"/><path d="M731.5 860H632c-6.63 0-12 5.37-12 12v241.65c0 6.63-5.37 12-12 12H458.5" stroke="#333" stroke-width="2" fill="none"/><path d="M746.76 860l-14.26 4.64v-9.28zM443.24 1125.65l14.26-4.64v9.3z" stroke="#333" stroke-width="2" fill="#333"/><path d="M848.5 860H968c6.63 0 12 5.37 12 12v241.65c0 6.63 5.37 12 12 12h149.5" stroke="#333" stroke-width="2" fill="none"/><path d="M833.24 860l14.26-4.64v9.28zM1156.76 1125.65l-14.26 4.64v-9.3z" stroke="#333" stroke-width="2" fill="#333"/><path d="M1200 1169.8v98.2c0 6.63-5.37 12-12 12H412c-6.63 0-12 5.37-12 12v72.4" stroke="#333" stroke-width="2" fill="none"/><path d="M1200 1154.54l4.64 14.26h-9.28zM400 1379.67l-4.64-14.27h9.28z" stroke="#333" stroke-width="2" fill="#333"/><defs><path fill="#147eba" d="M205 0l-28-72H64L36 0H1l101-248h38L239 0h-34zm-38-99l-47-123c-12 45-31 82-46 123h93" id="S"/><path fill="#147eba" d="M108 0H70L1-190h34L89-25l56-165h34" id="T"/><path fill="#147eba" d="M141-36C126-15 110 5 73 4 37 3 15-17 15-53c-1-64 63-63 125-63 3-35-9-54-41-54-24 1-41 7-42 31l-33-3c5-37 33-52 76-52 45 0 72 20 72 64v82c-1 20 7 32 28 27v20c-31 9-61-2-59-35zM48-53c0 20 12 33 32 33 41-3 63-29 60-74-43 2-92-5-92 41" id="U"/><path fill="#147eba" d="M24-231v-30h32v30H24zM24 0v-190h32V0H24" id="V"/><path fill="#147eba" d="M24 0v-261h32V0H24" id="W"/><path fill="#147eba" d="M115-194c53 0 69 39 70 98 0 66-23 100-70 100C84 3 66-7 56-30L54 0H23l1-261h32v101c10-23 28-34 59-34zm-8 174c40 0 45-34 45-75 0-40-5-75-45-74-42 0-51 32-51 76 0 43 10 73 51 73" id="X"/><path fill="#147eba" d="M59-47c-2 24 18 29 38 22v24C64 9 27 4 27-40v-127H5v-23h24l9-43h21v43h35v23H59v120" id="Y"/><path fill="#147eba" d="M179-190L93 31C79 59 56 82 12 73V49c39 6 53-20 64-50L1-190h34L92-34l54-156h33" id="Z"/><g id="a"><use transform="matrix(0.05,0,0,0.05,0,0)" xlink:href="#S"/><use transform="matrix(0.05,0,0,0.05,11.65,0)" xlink:href="#T"/><use transform="matrix(0.05,0,0,0.05,20.65,0)" xlink:href="#U"/><use transform="matrix(0.05,0,0,0.05,30.649999999999995,0)" xlink:href="#V"/><use transform="matrix(0.05,0,0,0.05,34.6,0)" xlink:href="#W"/><use transform="matrix(0.05,0,0,0.05,38.550000000000004,0)" xlink:href="#U"/><use transform="matrix(0.05,0,0,0.05,48.550000000000004,0)" xlink:href="#X"/><use transform="matrix(0.05,0,0,0.05,58.550000000000004,0)" xlink:href="#V"/><use transform="matrix(0.05,0,0,0.05,62.5,0)" xlink:href="#W"/><use transform="matrix(0.05,0,0,0.05,66.45,0)" xlink:href="#V"/><use transform="matrix(0.05,0,0,0.05,70.4,0)" xlink:href="#Y"/><use transform="matrix(0.05,0,0,0.05,75.4,0)" xlink:href="#Z"/></g><path fill="#147eba" d="M209 0H11v-25l151-195H24v-28h176v25L50-27h159V0" id="aa"/><path fill="#147eba" d="M100-194c62-1 85 37 85 99 1 63-27 99-86 99S16-35 15-95c0-66 28-99 85-99zM99-20c44 1 53-31 53-75 0-43-8-75-51-75s-53 32-53 75 10 74 51 75" id="ab"/><path fill="#147eba" d="M117-194c89-4 53 116 60 194h-32v-121c0-31-8-49-39-48C34-167 62-67 57 0H25l-1-190h30c1 10-1 24 2 32 11-22 29-35 61-36" id="ac"/><path fill="#147eba" d="M100-194c63 0 86 42 84 106H49c0 40 14 67 53 68 26 1 43-12 49-29l28 8c-11 28-37 45-77 45C44 4 14-33 15-96c1-61 26-98 85-98zm52 81c6-60-76-77-97-28-3 7-6 17-6 28h103" id="ad"/><g id="b"><use transform="matrix(0.05,0,0,0.05,0,0)" xlink:href="#aa"/><use transform="matrix(0.05,0,0,0.05,10.950000000000001,0)" xlink:href="#ab"/><use transform="matrix(0.05,0,0,0.05,20.950000000000003,0)" xlink:href="#ac"/><use transform="matrix(0.05,0,0,0.05,30.950000000000003,0)" xlink:href="#ad"/></g><use transform="matrix(0.05,0,0,0.05,0,0)" xlink:href="#S" id="c"/><path fill="#147eba" d="M160-131c35 5 61 23 61 61C221 17 115-2 30 0v-248c76 3 177-17 177 60 0 33-19 50-47 57zm-97-11c50-1 110 9 110-42 0-47-63-36-110-37v79zm0 115c55-2 124 14 124-45 0-56-70-42-124-44v89" id="ae"/><use transform="matrix(0.05,0,0,0.05,0,0)" xlink:href="#ae" id="d"/><path fill="#d86613" d="M205 0l-28-72H64L36 0H1l101-248h38L239 0h-34zm-38-99l-47-123c-12 45-31 82-46 123h93" id="af"/><path fill="#d86613" d="M84 4C-5 8 30-112 23-190h32v120c0 31 7 50 39 49 72-2 45-101 50-169h31l1 190h-30c-1-10 1-25-2-33-11 22-28 36-60 37" id="ag"/><path fill="#d86613" d="M59-47c-2 24 18 29 38 22v24C64 9 27 4 27-40v-127H5v-23h24l9-43h21v43h35v23H59v120" id="ah"/><path fill="#d86613" d="M100-194c62-1 85 37 85 99 1 63-27 99-86 99S16-35 15-95c0-66 28-99 85-99zM99-20c44 1 53-31 53-75 0-43-8-75-51-75s-53 32-53 75 10 74 51 75" id="ai"/><g id="e"><use transform="matrix(0.05,0,0,0.05,0,0)" xlink:href="#af"/><use transform="matrix(0.05,0,0,0.05,12,0)" xlink:href="#ag"/><use transform="matrix(0.05,0,0,0.05,22,0)" xlink:href="#ah"/><use transform="matrix(0.05,0,0,0.05,27,0)" xlink:href="#ai"/></g><path fill="#d86613" d="M185-189c-5-48-123-54-124 2 14 75 158 14 163 119 3 78-121 87-175 55-17-10-28-26-33-46l33-7c5 56 141 63 141-1 0-78-155-14-162-118-5-82 145-84 179-34 5 7 8 16 11 25" id="aj"/><path fill="#d86613" d="M96-169c-40 0-48 33-48 73s9 75 48 75c24 0 41-14 43-38l32 2c-6 37-31 61-74 61-59 0-76-41-82-99-10-93 101-131 147-64 4 7 5 14 7 22l-32 3c-4-21-16-35-41-35" id="ak"/><path fill="#d86613" d="M141-36C126-15 110 5 73 4 37 3 15-17 15-53c-1-64 63-63 125-63 3-35-9-54-41-54-24 1-41 7-42 31l-33-3c5-37 33-52 76-52 45 0 72 20 72 64v82c-1 20 7 32 28 27v20c-31 9-61-2-59-35zM48-53c0 20 12 33 32 33 41-3 63-29 60-74-43 2-92-5-92 41" id="al"/><path fill="#d86613" d="M24 0v-261h32V0H24" id="am"/><path fill="#d86613" d="M24-231v-30h32v30H24zM24 0v-190h32V0H24" id="an"/><path fill="#d86613" d="M117-194c89-4 53 116 60 194h-32v-121c0-31-8-49-39-48C34-167 62-67 57 0H25l-1-190h30c1 10-1 24 2 32 11-22 29-35 61-36" id="ao"/><path fill="#d86613" d="M177-190C167-65 218 103 67 71c-23-6-38-20-44-43l32-5c15 47 100 32 89-28v-30C133-14 115 1 83 1 29 1 15-40 15-95c0-56 16-97 71-98 29-1 48 16 59 35 1-10 0-23 2-32h30zM94-22c36 0 50-32 50-73 0-42-14-75-50-75-39 0-46 34-46 75s6 73 46 73" id="ap"/><g id="f"><use transform="matrix(0.05,0,0,0.05,0,0)" xlink:href="#aj"/><use transform="matrix(0.05,0,0,0.05,12,0)" xlink:href="#ak"/><use transform="matrix(0.05,0,0,0.05,21,0)" xlink:href="#al"/><use transform="matrix(0.05,0,0,0.05,31,0)" xlink:href="#am"/><use transform="matrix(0.05,0,0,0.05,34.95,0)" xlink:href="#an"/><use transform="matrix(0.05,0,0,0.05,38.900000000000006,0)" xlink:href="#ao"/><use transform="matrix(0.05,0,0,0.05,48.900000000000006,0)" xlink:href="#ap"/></g><path fill="#666" d="M148-1120c216-7 379-89 463-229h166v1204h353V0H157v-145h439v-1021c-79 124-254 184-448 194v-148" id="aq"/><path fill="#666" d="M1065-1013c47 164 49 500-1 665C999-130 875 20 611 20c-377 0-484-300-487-695-2-245 41-425 141-551 77-98 191-144 352-144 261 0 386 140 448 357zM741-155c199-92 203-504 159-785-26-168-96-284-283-284-281 0-308 256-311 549-2 181 18 324 80 428 46 77 115 118 227 120 47 0 90-10 128-28" id="ar"/><path fill="#666" d="M496 0v-299h235V0H496" id="as"/><path fill="#666" d="M611-1370c266 0 451 106 451 368 0 147-77 243-154 327-132 144-316 255-451 395-42 44-75 87-96 134h723V0H144v-117c124-264 387-411 582-603 73-72 151-147 151-271 0-161-104-231-266-231-163 0-249 90-268 238l-184-17c35-233 185-369 452-369" id="at"/><path fill="#666" d="M114 20l821-1504h178L296 20H114" id="au"/><path fill="#666" d="M937-319V0H757v-319H103v-140l635-890h199v888h188v142H937zm-180-835L257-461h500v-693" id="av"/><g id="g"><use transform="matrix(0.006510416666666667,0,0,0.006510416666666667,0,0)" xlink:href="#aq"/><use transform="matrix(0.006510416666666667,0,0,0.006510416666666667,8.001302083333334,0)" xlink:href="#ar"/><use transform="matrix(0.006510416666666667,0,0,0.006510416666666667,16.002604166666668,0)" xlink:href="#as"/><use transform="matrix(0.006510416666666667,0,0,0.006510416666666667,24.00390625,0)" xlink:href="#ar"/><use transform="matrix(0.006510416666666667,0,0,0.006510416666666667,32.005208333333336,0)" xlink:href="#as"/><use transform="matrix(0.006510416666666667,0,0,0.006510416666666667,40.00651041666667,0)" xlink:href="#at"/><use transform="matrix(0.006510416666666667,0,0,0.006510416666666667,48.00781250000001,0)" xlink:href="#as"/><use transform="matrix(0.006510416666666667,0,0,0.006510416666666667,56.00911458333335,0)" xlink:href="#ar"/><use transform="matrix(0.006510416666666667,0,0,0.006510416666666667,64.01041666666667,0)" xlink:href="#au"/><use transform="matrix(0.006510416666666667,0,0,0.006510416666666667,72.01171875,0)" xlink:href="#at"/><use transform="matrix(0.006510416666666667,0,0,0.006510416666666667,80.01302083333333,0)" xlink:href="#av"/></g><g id="h"><use transform="matrix(0.006510416666666667,0,0,0.006510416666666667,0,0)" xlink:href="#aq"/><use transform="matrix(0.006510416666666667,0,0,0.006510416666666667,8.001302083333334,0)" xlink:href="#ar"/><use transform="matrix(0.006510416666666667,0,0,0.006510416666666667,16.002604166666668,0)" xlink:href="#as"/><use transform="matrix(0.006510416666666667,0,0,0.006510416666666667,24.00390625,0)" xlink:href="#ar"/><use transform="matrix(0.006510416666666667,0,0,0.006510416666666667,32.005208333333336,0)" xlink:href="#as"/><use transform="matrix(0.006510416666666667,0,0,0.006510416666666667,40.00651041666667,0)" xlink:href="#aq"/><use transform="matrix(0.006510416666666667,0,0,0.006510416666666667,48.00781250000001,0)" xlink:href="#at"/><use transform="matrix(0.006510416666666667,0,0,0.006510416666666667,56.00911458333335,0)" xlink:href="#as"/><use transform="matrix(0.006510416666666667,0,0,0.006510416666666667,64.01041666666667,0)" xlink:href="#ar"/><use transform="matrix(0.006510416666666667,0,0,0.006510416666666667,72.01171875,0)" xlink:href="#au"/><use transform="matrix(0.006510416666666667,0,0,0.006510416666666667,80.01302083333333,0)" xlink:href="#at"/><use transform="matrix(0.006510416666666667,0,0,0.006510416666666667,88.01432291666666,0)" xlink:href="#av"/></g><g id="i"><use transform="matrix(0.006510416666666667,0,0,0.006510416666666667,0,0)" xlink:href="#aq"/><use transform="matrix(0.006510416666666667,0,0,0.006510416666666667,8.001302083333334,0)" xlink:href="#ar"/><use transform="matrix(0.006510416666666667,0,0,0.006510416666666667,16.002604166666668,0)" xlink:href="#as"/><use transform="matrix(0.006510416666666667,0,0,0.006510416666666667,24.00390625,0)" xlink:href="#ar"/><use transform="matrix(0.006510416666666667,0,0,0.006510416666666667,32.005208333333336,0)" xlink:href="#as"/><use transform="matrix(0.006510416666666667,0,0,0.006510416666666667,40.00651041666667,0)" xlink:href="#at"/><use transform="matrix(0.006510416666666667,0,0,0.006510416666666667,48.00781250000001,0)" xlink:href="#at"/><use transform="matrix(0.006510416666666667,0,0,0.006510416666666667,56.00911458333335,0)" xlink:href="#as"/><use transform="matrix(0.006510416666666667,0,0,0.006510416666666667,64.01041666666667,0)" xlink:href="#ar"/><use transform="matrix(0.006510416666666667,0,0,0.006510416666666667,72.01171875,0)" xlink:href="#au"/><use transform="matrix(0.006510416666666667,0,0,0.006510416666666667,80.01302083333333,0)" xlink:href="#at"/><use transform="matrix(0.006510416666666667,0,0,0.006510416666666667,88.01432291666666,0)" xlink:href="#av"/></g><g id="j"><use transform="matrix(0.006510416666666667,0,0,0.006510416666666667,0,0)" xlink:href="#aq"/><use transform="matrix(0.006510416666666667,0,0,0.006510416666666667,8.001302083333334,0)" xlink:href="#ar"/><use transform="matrix(0.006510416666666667,0,0,0.006510416666666667,16.002604166666668,0)" xlink:href="#as"/><use transform="matrix(0.006510416666666667,0,0,0.006510416666666667,24.00390625,0)" xlink:href="#ar"/><use transform="matrix(0.006510416666666667,0,0,0.006510416666666667,32.005208333333336,0)" xlink:href="#as"/><use transform="matrix(0.006510416666666667,0,0,0.006510416666666667,40.00651041666667,0)" xlink:href="#aq"/><use transform="matrix(0.006510416666666667,0,0,0.006510416666666667,48.00781250000001,0)" xlink:href="#as"/><use transform="matrix(0.006510416666666667,0,0,0.006510416666666667,56.00911458333335,0)" xlink:href="#ar"/><use transform="matrix(0.006510416666666667,0,0,0.006510416666666667,64.01041666666667,0)" xlink:href="#au"/><use transform="matrix(0.006510416666666667,0,0,0.006510416666666667,72.01171875,0)" xlink:href="#at"/><use transform="matrix(0.006510416666666667,0,0,0.006510416666666667,80.01302083333333,0)" xlink:href="#av"/></g><g id="k"><use transform="matrix(0.006510416666666667,0,0,0.006510416666666667,0,0)" xlink:href="#aq"/><use transform="matrix(0.006510416666666667,0,0,0.006510416666666667,8.001302083333334,0)" xlink:href="#ar"/><use transform="matrix(0.006510416666666667,0,0,0.006510416666666667,16.002604166666668,0)" xlink:href="#as"/><use transform="matrix(0.006510416666666667,0,0,0.006510416666666667,24.00390625,0)" xlink:href="#ar"/><use transform="matrix(0.006510416666666667,0,0,0.006510416666666667,32.005208333333336,0)" xlink:href="#as"/><use transform="matrix(0.006510416666666667,0,0,0.006510416666666667,40.00651041666667,0)" xlink:href="#aq"/><use transform="matrix(0.006510416666666667,0,0,0.006510416666666667,48.00781250000001,0)" xlink:href="#aq"/><use transform="matrix(0.006510416666666667,0,0,0.006510416666666667,56.00911458333335,0)" xlink:href="#as"/><use transform="matrix(0.006510416666666667,0,0,0.006510416666666667,64.01041666666667,0)" xlink:href="#ar"/><use transform="matrix(0.006510416666666667,0,0,0.006510416666666667,72.01171875,0)" xlink:href="#au"/><use transform="matrix(0.006510416666666667,0,0,0.006510416666666667,80.01302083333333,0)" xlink:href="#at"/><use transform="matrix(0.006510416666666667,0,0,0.006510416666666667,88.01432291666666,0)" xlink:href="#av"/></g><g id="l"><use transform="matrix(0.006510416666666667,0,0,0.006510416666666667,0,0)" xlink:href="#aq"/><use transform="matrix(0.006510416666666667,0,0,0.006510416666666667,8.001302083333334,0)" xlink:href="#ar"/><use transform="matrix(0.006510416666666667,0,0,0.006510416666666667,16.002604166666668,0)" xlink:href="#as"/><use transform="matrix(0.006510416666666667,0,0,0.006510416666666667,24.00390625,0)" xlink:href="#ar"/><use transform="matrix(0.006510416666666667,0,0,0.006510416666666667,32.005208333333336,0)" xlink:href="#as"/><use transform="matrix(0.006510416666666667,0,0,0.006510416666666667,40.00651041666667,0)" xlink:href="#at"/><use transform="matrix(0.006510416666666667,0,0,0.006510416666666667,48.00781250000001,0)" xlink:href="#aq"/><use transform="matrix(0.006510416666666667,0,0,0.006510416666666667,56.00911458333335,0)" xlink:href="#as"/><use transform="matrix(0.006510416666666667,0,0,0.006510416666666667,64.01041666666667,0)" xlink:href="#ar"/><use transform="matrix(0.006510416666666667,0,0,0.006510416666666667,72.01171875,0)" xlink:href="#au"/><use transform="matrix(0.006510416666666667,0,0,0.006510416666666667,80.01302083333333,0)" xlink:href="#at"/><use transform="matrix(0.006510416666666667,0,0,0.006510416666666667,88.01432291666666,0)" xlink:href="#av"/></g><path fill="#666" d="M147 0H94L2-248h55l64 206c17-72 42-137 63-206h54" id="aw"/><path fill="#666" d="M24-248c93 1 206-16 204 79-1 75-69 88-152 82V0H24v-248zm52 121c47 0 100 7 100-41 0-47-54-39-100-39v80" id="ax"/><path fill="#666" d="M67-125c0 53 21 87 73 88 37 1 54-22 65-47l45 17C233-25 199 4 140 4 58 4 20-42 15-125 8-235 124-281 211-232c18 10 29 29 36 50l-46 12c-8-25-30-41-62-41-52 0-71 34-72 86" id="ay"/><g id="m"><use transform="matrix(0.04938271604938272,0,0,0.04938271604938272,0,0)" xlink:href="#aw"/><use transform="matrix(0.04938271604938272,0,0,0.04938271604938272,11.851851851851853,0)" xlink:href="#ax"/><use transform="matrix(0.04938271604938272,0,0,0.04938271604938272,23.703703703703706,0)" xlink:href="#ay"/></g><path fill="#666" d="M27 0v-27h64v-190l-56 39v-29l58-41h29v221h61V0H27" id="az"/><path fill="#666" d="M101-251c68 0 85 55 85 127S166 4 100 4C33 4 14-52 14-124c0-73 17-127 87-127zm-1 229c47 0 54-49 54-102s-4-102-53-102c-51 0-55 48-55 102 0 53 5 102 54 102" id="aA"/><path fill="#666" d="M33 0v-38h34V0H33" id="aB"/><path fill="#666" d="M0 4l72-265h28L28 4H0" id="aC"/><path fill="#666" d="M110-160c48 1 74 30 74 79 0 53-28 85-80 85-65 0-83-55-86-122-5-90 50-162 133-122 14 7 22 21 27 39l-31 6c-5-40-67-38-82-6-9 19-15 44-15 74 11-20 30-34 60-33zm-7 138c34 0 49-23 49-58s-16-56-50-56c-29 0-50 16-49 49 1 36 15 65 50 65" id="aD"/><g id="n"><use transform="matrix(0.04320987654320988,0,0,0.04320987654320988,0,0)" xlink:href="#az"/><use transform="matrix(0.04320987654320988,0,0,0.04320987654320988,8.641975308641976,0)" xlink:href="#aA"/><use transform="matrix(0.04320987654320988,0,0,0.04320987654320988,17.283950617283953,0)" xlink:href="#aB"/><use transform="matrix(0.04320987654320988,0,0,0.04320987654320988,21.60493827160494,0)" xlink:href="#aA"/><use transform="matrix(0.04320987654320988,0,0,0.04320987654320988,30.24691358024692,0)" xlink:href="#aB"/><use transform="matrix(0.04320987654320988,0,0,0.04320987654320988,34.567901234567906,0)" xlink:href="#aA"/><use transform="matrix(0.04320987654320988,0,0,0.04320987654320988,43.20987654320988,0)" xlink:href="#aB"/><use transform="matrix(0.04320987654320988,0,0,0.04320987654320988,47.53086419753087,0)" xlink:href="#aA"/><use transform="matrix(0.04320987654320988,0,0,0.04320987654320988,56.17283950617284,0)" xlink:href="#aC"/><use transform="matrix(0.04320987654320988,0,0,0.04320987654320988,60.49382716049384,0)" xlink:href="#az"/><use transform="matrix(0.04320987654320988,0,0,0.04320987654320988,69.13580246913581,0)" xlink:href="#aD"/></g><path fill="#666" d="M199 0l-22-63H83L61 0H9l90-248h61L250 0h-51zm-33-102l-36-108c-10 38-24 72-36 108h72" id="aE"/><path fill="#666" d="M275 0h-61l-44-196L126 0H64L0-248h53L97-49l45-199h58l43 199 44-199h52" id="aF"/><path fill="#666" d="M169-182c-1-43-94-46-97-3 18 66 151 10 154 114 3 95-165 93-204 36-6-8-10-19-12-30l50-8c3 46 112 56 116 5-17-69-150-10-154-114-4-87 153-88 188-35 5 8 8 18 10 28" id="aG"/><g id="o"><use transform="matrix(0.04938271604938272,0,0,0.04938271604938272,0,0)" xlink:href="#aE"/><use transform="matrix(0.04938271604938272,0,0,0.04938271604938272,11.80246913580247,0)" xlink:href="#aF"/><use transform="matrix(0.04938271604938272,0,0,0.04938271604938272,28.543209876543205,0)" xlink:href="#aG"/></g><path fill="#666" d="M25 0v-261h50V0H25" id="aH"/><path fill="#666" d="M110-194c64 0 96 36 96 99 0 64-35 99-97 99-61 0-95-36-95-99 0-62 34-99 96-99zm-1 164c35 0 45-28 45-65 0-40-10-65-43-65-34 0-45 26-45 65 0 36 10 65 43 65" id="aI"/><path fill="#666" d="M85 4C-2 5 27-109 22-190h50c7 57-23 150 33 157 60-5 35-97 40-157h50l1 190h-47c-2-12 1-28-3-38-12 25-28 42-61 42" id="aJ"/><path fill="#666" d="M88-194c31-1 46 15 58 34l-1-101h50l1 261h-48c-2-10 0-23-3-31C134-8 116 4 84 4 32 4 16-41 15-95c0-56 19-97 73-99zm17 164c33 0 40-30 41-66 1-37-9-64-41-64s-38 30-39 65c0 43 13 65 39 65" id="aK"/><g id="p"><use transform="matrix(0.04938271604938272,0,0,0.04938271604938272,0,0)" xlink:href="#ay"/><use transform="matrix(0.04938271604938272,0,0,0.04938271604938272,12.790123456790125,0)" xlink:href="#aH"/><use transform="matrix(0.04938271604938272,0,0,0.04938271604938272,17.7283950617284,0)" xlink:href="#aI"/><use transform="matrix(0.04938271604938272,0,0,0.04938271604938272,28.54320987654322,0)" xlink:href="#aJ"/><use transform="matrix(0.04938271604938272,0,0,0.04938271604938272,39.35802469135803,0)" xlink:href="#aK"/></g><path fill="#a9afb8" d="M199 0l-22-63H83L61 0H9l90-248h61L250 0h-51zm-33-102l-36-108c-10 38-24 72-36 108h72" id="aL"/><path fill="#a9afb8" d="M275 0h-61l-44-196L126 0H64L0-248h53L97-49l45-199h58l43 199 44-199h52" id="aM"/><path fill="#a9afb8" d="M169-182c-1-43-94-46-97-3 18 66 151 10 154 114 3 95-165 93-204 36-6-8-10-19-12-30l50-8c3 46 112 56 116 5-17-69-150-10-154-114-4-87 153-88 188-35 5 8 8 18 10 28" id="aN"/><g id="q"><use transform="matrix(0.0728395061728395,0,0,0.0728395061728395,0,0)" xlink:href="#aL"/><use transform="matrix(0.0728395061728395,0,0,0.0728395061728395,17.40864197530864,0)" xlink:href="#aM"/><use transform="matrix(0.0728395061728395,0,0,0.0728395061728395,42.10123456790124,0)" xlink:href="#aN"/></g><path fill="#a9afb8" d="M110-194c64 0 96 36 96 99 0 64-35 99-97 99-61 0-95-36-95-99 0-62 34-99 96-99zm-1 164c35 0 45-28 45-65 0-40-10-65-43-65-34 0-45 26-45 65 0 36 10 65 43 65" id="aO"/><path fill="#a9afb8" d="M25 0v-261h50V0H25" id="aP"/><path fill="#a9afb8" d="M85 4C-2 5 27-109 22-190h50c7 57-23 150 33 157 60-5 35-97 40-157h50l1 190h-47c-2-12 1-28-3-38-12 25-28 42-61 42" id="aQ"/><path fill="#a9afb8" d="M115-3C79 11 28 4 28-45v-112H4v-33h27l15-45h31v45h36v33H77v99c-1 23 16 31 38 25v30" id="aR"/><path fill="#a9afb8" d="M25-224v-37h50v37H25zM25 0v-190h50V0H25" id="aS"/><path fill="#a9afb8" d="M135-194c87-1 58 113 63 194h-50c-7-57 23-157-34-157-59 0-34 97-39 157H25l-1-190h47c2 12-1 28 3 38 12-26 28-41 61-42" id="aT"/><g id="r"><use transform="matrix(0.0728395061728395,0,0,0.0728395061728395,0,0)" xlink:href="#aN"/><use transform="matrix(0.0728395061728395,0,0,0.0728395061728395,17.48148148148148,0)" xlink:href="#aO"/><use transform="matrix(0.0728395061728395,0,0,0.0728395061728395,33.43333333333333,0)" xlink:href="#aP"/><use transform="matrix(0.0728395061728395,0,0,0.0728395061728395,40.717283950617286,0)" xlink:href="#aQ"/><use transform="matrix(0.0728395061728395,0,0,0.0728395061728395,56.66913580246913,0)" xlink:href="#aR"/><use transform="matrix(0.0728395061728395,0,0,0.0728395061728395,65.33703703703704,0)" xlink:href="#aS"/><use transform="matrix(0.0728395061728395,0,0,0.0728395061728395,72.62098765432098,0)" xlink:href="#aO"/><use transform="matrix(0.0728395061728395,0,0,0.0728395061728395,88.57283950617284,0)" xlink:href="#aT"/></g><path fill="#a9afb8" d="M231 0h-52l-39-155L100 0H48L-1-190h46L77-45c9-52 24-97 36-145h53l37 145 32-145h46" id="aU"/><path fill="#a9afb8" d="M114-157C55-157 80-60 75 0H25v-261h50l-1 109c12-26 28-41 61-42 86-1 58 113 63 194h-50c-7-57 23-157-34-157" id="aV"/><g id="s"><use transform="matrix(0.0728395061728395,0,0,0.0728395061728395,0,0)" xlink:href="#aU"/><use transform="matrix(0.0728395061728395,0,0,0.0728395061728395,20.39506172839506,0)" xlink:href="#aS"/><use transform="matrix(0.0728395061728395,0,0,0.0728395061728395,27.67901234567901,0)" xlink:href="#aR"/><use transform="matrix(0.0728395061728395,0,0,0.0728395061728395,36.34691358024691,0)" xlink:href="#aV"/></g><path fill="#a9afb8" d="M24 0v-248h195v40H76v63h132v40H76v65h150V0H24" id="aW"/><path fill="#a9afb8" d="M67-125c0 53 21 87 73 88 37 1 54-22 65-47l45 17C233-25 199 4 140 4 58 4 20-42 15-125 8-235 124-281 211-232c18 10 29 29 36 50l-46 12c-8-25-30-41-62-41-52 0-71 34-72 86" id="aX"/><path fill="#a9afb8" d="M4 7l51-268h42L46 7H4" id="aY"/><path fill="#a9afb8" d="M76-208v77h127v40H76V0H24v-248h183v40H76" id="aZ"/><path fill="#a9afb8" d="M133-34C117-15 103 5 69 4 32 3 11-16 11-54c-1-60 55-63 116-61 1-26-3-47-28-47-18 1-26 9-28 27l-52-2c7-38 36-58 82-57s74 22 75 68l1 82c-1 14 12 18 25 15v27c-30 8-71 5-69-32zm-48 3c29 0 43-24 42-57-32 0-66-3-65 30 0 17 8 27 23 27" id="ba"/><path fill="#a9afb8" d="M135-150c-39-12-60 13-60 57V0H25l-1-190h47c2 13-1 29 3 40 6-28 27-53 61-41v41" id="bb"/><path fill="#a9afb8" d="M195-6C206 82 75 100 31 46c-4-6-6-13-8-21l49-6c3 16 16 24 34 25 40 0 42-37 40-79-11 22-30 35-61 35-53 0-70-43-70-97 0-56 18-96 73-97 30 0 46 14 59 34l2-30h47zm-90-29c32 0 41-27 41-63 0-35-9-62-40-62-32 0-39 29-40 63 0 36 9 62 39 62" id="bc"/><path fill="#a9afb8" d="M185-48c-13 30-37 53-82 52C43 2 14-33 14-96s30-98 90-98c62 0 83 45 84 108H66c0 31 8 55 39 56 18 0 30-7 34-22zm-45-69c5-46-57-63-70-21-2 6-4 13-4 21h74" id="bd"/><g id="t"><use transform="matrix(0.0728395061728395,0,0,0.0728395061728395,0,0)" xlink:href="#aW"/><use transform="matrix(0.0728395061728395,0,0,0.0728395061728395,17.48148148148148,0)" xlink:href="#aX"/><use transform="matrix(0.0728395061728395,0,0,0.0728395061728395,36.34691358024691,0)" xlink:href="#aN"/><use transform="matrix(0.0728395061728395,0,0,0.0728395061728395,53.82839506172839,0)" xlink:href="#aY"/><use transform="matrix(0.0728395061728395,0,0,0.0728395061728395,61.11234567901234,0)" xlink:href="#aZ"/><use transform="matrix(0.0728395061728395,0,0,0.0728395061728395,77.06419753086419,0)" xlink:href="#ba"/><use transform="matrix(0.0728395061728395,0,0,0.0728395061728395,91.63209876543209,0)" xlink:href="#bb"/><use transform="matrix(0.0728395061728395,0,0,0.0728395061728395,101.82962962962962,0)" xlink:href="#bc"/><use transform="matrix(0.0728395061728395,0,0,0.0728395061728395,117.78148148148148,0)" xlink:href="#ba"/><use transform="matrix(0.0728395061728395,0,0,0.0728395061728395,132.34938271604938,0)" xlink:href="#aR"/><use transform="matrix(0.0728395061728395,0,0,0.0728395061728395,141.01728395061727,0)" xlink:href="#bd"/></g><path fill="#a9afb8" d="M168-19C124 19 11 11 16-68c3-43 29-60 59-75-25-44-12-111 53-106 37 3 64 15 64 52 0 43-40 52-69 68 12 22 27 41 43 59 14-19 21-38 28-64l37 13c-8 29-19 52-34 74 12 10 32 16 52 10v35c-28 11-65-2-81-17zm-58-139c19-9 43-14 43-39 0-14-10-22-25-22-34 0-33 41-18 61zM60-68c-3 40 55 47 79 25-18-20-34-42-48-67-18 8-30 20-31 42" id="be"/><use transform="matrix(0.0728395061728395,0,0,0.0728395061728395,0,0)" xlink:href="#be" id="u"/><path fill="#a9afb8" d="M240-174c0 40-23 61-54 70L253 0h-59l-57-94H76V0H24v-248c93 4 217-23 216 74zM76-134c48-2 112 12 112-38 0-48-66-32-112-35v73" id="bf"/><path fill="#a9afb8" d="M24-248c120-7 223 5 221 122C244-46 201 0 124 0H24v-248zM76-40c74 7 117-18 117-86 0-67-45-88-117-82v168" id="bg"/><g id="v"><use transform="matrix(0.0728395061728395,0,0,0.0728395061728395,0,0)" xlink:href="#bf"/><use transform="matrix(0.0728395061728395,0,0,0.0728395061728395,18.86543209876543,0)" xlink:href="#bg"/><use transform="matrix(0.0728395061728395,0,0,0.0728395061728395,37.73086419753086,0)" xlink:href="#aN"/></g><path fill="#a9afb8" d="M210-169c-67 3-38 105-44 169h-31v-121c0-29-5-50-35-48C34-165 62-65 56 0H25l-1-190h30c1 10-1 24 2 32 10-44 99-50 107 0 11-21 27-35 58-36 85-2 47 119 55 194h-31v-121c0-29-5-49-35-48" id="bh"/><path fill="#a9afb8" d="M24-231v-30h32v30H24zM24 0v-190h32V0H24" id="bi"/><path fill="#a9afb8" d="M143 0L79-87 56-68V0H24v-261h32v163l83-92h37l-77 82L181 0h-38" id="bj"/><path fill="#a9afb8" d="M141-36C126-15 110 5 73 4 37 3 15-17 15-53c-1-64 63-63 125-63 3-35-9-54-41-54-24 1-41 7-42 31l-33-3c5-37 33-52 76-52 45 0 72 20 72 64v82c-1 20 7 32 28 27v20c-31 9-61-2-59-35zM48-53c0 20 12 33 32 33 41-3 63-29 60-74-43 2-92-5-92 41" id="bk"/><path fill="#a9afb8" d="M179-190L93 31C79 59 56 82 12 73V49c39 6 53-20 64-50L1-190h34L92-34l54-156h33" id="bl"/><path fill="#a9afb8" d="M100-194c63 0 86 42 84 106H49c0 40 14 67 53 68 26 1 43-12 49-29l28 8c-11 28-37 45-77 45C44 4 14-33 15-96c1-61 26-98 85-98zm52 81c6-60-76-77-97-28-3 7-6 17-6 28h103" id="bm"/><path fill="#a9afb8" d="M24 0v-261h32V0H24" id="bn"/><g id="w"><use transform="matrix(0.04248971193415638,0,0,0.04248971193415638,0,0)" xlink:href="#bh"/><use transform="matrix(0.04248971193415638,0,0,0.04248971193415638,12.704423868312757,0)" xlink:href="#bi"/><use transform="matrix(0.04248971193415638,0,0,0.04248971193415638,16.06111111111111,0)" xlink:href="#bj"/><use transform="matrix(0.04248971193415638,0,0,0.04248971193415638,23.70925925925926,0)" xlink:href="#bk"/><use transform="matrix(0.04248971193415638,0,0,0.04248971193415638,32.20720164609053,0)" xlink:href="#bl"/><use transform="matrix(0.04248971193415638,0,0,0.04248971193415638,39.85534979423868,0)" xlink:href="#bm"/><use transform="matrix(0.04248971193415638,0,0,0.04248971193415638,48.35329218106995,0)" xlink:href="#bn"/></g><path fill="#a9afb8" d="M177-190C167-65 218 103 67 71c-23-6-38-20-44-43l32-5c15 47 100 32 89-28v-30C133-14 115 1 83 1 29 1 15-40 15-95c0-56 16-97 71-98 29-1 48 16 59 35 1-10 0-23 2-32h30zM94-22c36 0 50-32 50-73 0-42-14-75-50-75-39 0-46 34-46 75s6 73 46 73" id="bo"/><path fill="#a9afb8" d="M106-169C34-169 62-67 57 0H25v-261h32l-1 103c12-21 28-36 61-36 89 0 53 116 60 194h-32v-121c2-32-8-49-39-48" id="bp"/><path fill="#a9afb8" d="M9 0v-24l116-142H16v-24h144v24L44-24h123V0H9" id="bq"/><path fill="#a9afb8" d="M114-163C36-179 61-72 57 0H25l-1-190h30c1 12-1 29 2 39 6-27 23-49 58-41v29" id="br"/><path fill="#a9afb8" d="M117-194c89-4 53 116 60 194h-32v-121c0-31-8-49-39-48C34-167 62-67 57 0H25l-1-190h30c1 10-1 24 2 32 11-22 29-35 61-36" id="bs"/><g id="x"><use transform="matrix(0.04248971193415638,0,0,0.04248971193415638,0,0)" xlink:href="#bo"/><use transform="matrix(0.04248971193415638,0,0,0.04248971193415638,8.497942386831275,0)" xlink:href="#bp"/><use transform="matrix(0.04248971193415638,0,0,0.04248971193415638,16.99588477366255,0)" xlink:href="#bk"/><use transform="matrix(0.04248971193415638,0,0,0.04248971193415638,25.493827160493822,0)" xlink:href="#bq"/><use transform="matrix(0.04248971193415638,0,0,0.04248971193415638,33.14197530864197,0)" xlink:href="#bk"/><use transform="matrix(0.04248971193415638,0,0,0.04248971193415638,41.639917695473244,0)" xlink:href="#br"/><use transform="matrix(0.04248971193415638,0,0,0.04248971193415638,46.69619341563785,0)" xlink:href="#bl"/><use transform="matrix(0.04248971193415638,0,0,0.04248971193415638,54.344341563785996,0)" xlink:href="#bk"/><use transform="matrix(0.04248971193415638,0,0,0.04248971193415638,62.84228395061727,0)" xlink:href="#bs"/></g><path fill="#a9afb8" d="M32 76v-337h29V76H32" id="bt"/><use transform="matrix(0.04248971193415638,0,0,0.04248971193415638,0,0)" xlink:href="#bt" id="y"/><path fill="#a9afb8" d="M140-251c81 0 123 46 123 126C263-46 219 4 140 4 59 4 17-45 17-125s42-126 123-126zm0 227c63 0 89-41 89-101s-29-99-89-99c-61 0-89 39-89 99S79-25 140-24" id="bu"/><path fill="#a9afb8" d="M96-169c-40 0-48 33-48 73s9 75 48 75c24 0 41-14 43-38l32 2c-6 37-31 61-74 61-59 0-76-41-82-99-10-93 101-131 147-64 4 7 5 14 7 22l-32 3c-4-21-16-35-41-35" id="bv"/><path fill="#a9afb8" d="M59-47c-2 24 18 29 38 22v24C64 9 27 4 27-40v-127H5v-23h24l9-43h21v43h35v23H59v120" id="bw"/><path fill="#a9afb8" d="M100-194c62-1 85 37 85 99 1 63-27 99-86 99S16-35 15-95c0-66 28-99 85-99zM99-20c44 1 53-31 53-75 0-43-8-75-51-75s-53 32-53 75 10 74 51 75" id="bx"/><path fill="#a9afb8" d="M115-194c53 0 69 39 70 98 0 66-23 100-70 100C84 3 66-7 56-30L54 0H23l1-261h32v101c10-23 28-34 59-34zm-8 174c40 0 45-34 45-75 0-40-5-75-45-74-42 0-51 32-51 76 0 43 10 73 51 73" id="by"/><g id="z"><use transform="matrix(0.04248971193415638,0,0,0.04248971193415638,0,0)" xlink:href="#bu"/><use transform="matrix(0.04248971193415638,0,0,0.04248971193415638,11.897119341563785,0)" xlink:href="#bv"/><use transform="matrix(0.04248971193415638,0,0,0.04248971193415638,19.545267489711932,0)" xlink:href="#bw"/><use transform="matrix(0.04248971193415638,0,0,0.04248971193415638,23.79423868312757,0)" xlink:href="#bx"/><use transform="matrix(0.04248971193415638,0,0,0.04248971193415638,32.29218106995884,0)" xlink:href="#by"/><use transform="matrix(0.04248971193415638,0,0,0.04248971193415638,40.79012345679012,0)" xlink:href="#bm"/><use transform="matrix(0.04248971193415638,0,0,0.04248971193415638,49.288065843621396,0)" xlink:href="#br"/></g><path fill="#a9afb8" d="M101-251c82-7 93 87 43 132L82-64C71-53 59-42 53-27h129V0H18c2-99 128-94 128-182 0-28-16-43-45-43s-46 15-49 41l-32-3c6-41 34-60 81-64" id="bz"/><path fill="#a9afb8" d="M126-127c33 6 58 20 58 59 0 88-139 92-164 29-3-8-5-16-6-25l32-3c6 27 21 44 54 44 32 0 52-15 52-46 0-38-36-46-79-43v-28c39 1 72-4 72-42 0-27-17-43-46-43-28 0-47 15-49 41l-32-3c6-42 35-63 81-64 48-1 79 21 79 65 0 36-21 52-52 59" id="bA"/><path fill="#a9afb8" d="M68-38c1 34 0 65-14 84H32c9-13 17-26 17-46H33v-38h35" id="bB"/><g id="A"><use transform="matrix(0.04248971193415638,0,0,0.04248971193415638,0,0)" xlink:href="#bz"/><use transform="matrix(0.04248971193415638,0,0,0.04248971193415638,8.497942386831275,0)" xlink:href="#bA"/><use transform="matrix(0.04248971193415638,0,0,0.04248971193415638,16.99588477366255,0)" xlink:href="#bB"/></g><path fill="#a9afb8" d="M101-251c68 0 85 55 85 127S166 4 100 4C33 4 14-52 14-124c0-73 17-127 87-127zm-1 229c47 0 54-49 54-102s-4-102-53-102c-51 0-55 48-55 102 0 53 5 102 54 102" id="bC"/><path fill="#a9afb8" d="M27 0v-27h64v-190l-56 39v-29l58-41h29v221h61V0H27" id="bD"/><g id="B"><use transform="matrix(0.04248971193415638,0,0,0.04248971193415638,0,0)" xlink:href="#bz"/><use transform="matrix(0.04248971193415638,0,0,0.04248971193415638,8.497942386831275,0)" xlink:href="#bC"/><use transform="matrix(0.04248971193415638,0,0,0.04248971193415638,16.99588477366255,0)" xlink:href="#bz"/><use transform="matrix(0.04248971193415638,0,0,0.04248971193415638,25.493827160493822,0)" xlink:href="#bD"/></g><path fill="#333" d="M30 0v-248h33v221h125V0H30" id="bE"/><path fill="#333" d="M100-194c62-1 85 37 85 99 1 63-27 99-86 99S16-35 15-95c0-66 28-99 85-99zM99-20c44 1 53-31 53-75 0-43-8-75-51-75s-53 32-53 75 10 74 51 75" id="bF"/><path fill="#333" d="M141-36C126-15 110 5 73 4 37 3 15-17 15-53c-1-64 63-63 125-63 3-35-9-54-41-54-24 1-41 7-42 31l-33-3c5-37 33-52 76-52 45 0 72 20 72 64v82c-1 20 7 32 28 27v20c-31 9-61-2-59-35zM48-53c0 20 12 33 32 33 41-3 63-29 60-74-43 2-92-5-92 41" id="bG"/><path fill="#333" d="M85-194c31 0 48 13 60 33l-1-100h32l1 261h-30c-2-10 0-23-3-31C134-8 116 4 85 4 32 4 16-35 15-94c0-66 23-100 70-100zm9 24c-40 0-46 34-46 75 0 40 6 74 45 74 42 0 51-32 51-76 0-42-9-74-50-73" id="bH"/><g id="C"><use transform="matrix(0.05,0,0,0.05,0,0)" xlink:href="#bE"/><use transform="matrix(0.05,0,0,0.05,10,0)" xlink:href="#bF"/><use transform="matrix(0.05,0,0,0.05,20,0)" xlink:href="#bG"/><use transform="matrix(0.05,0,0,0.05,30,0)" xlink:href="#bH"/></g><path fill="#333" d="M160-131c35 5 61 23 61 61C221 17 115-2 30 0v-248c76 3 177-17 177 60 0 33-19 50-47 57zm-97-11c50-1 110 9 110-42 0-47-63-36-110-37v79zm0 115c55-2 124 14 124-45 0-56-70-42-124-44v89" id="bI"/><path fill="#333" d="M24 0v-261h32V0H24" id="bJ"/><path fill="#333" d="M117-194c89-4 53 116 60 194h-32v-121c0-31-8-49-39-48C34-167 62-67 57 0H25l-1-190h30c1 10-1 24 2 32 11-22 29-35 61-36" id="bK"/><path fill="#333" d="M96-169c-40 0-48 33-48 73s9 75 48 75c24 0 41-14 43-38l32 2c-6 37-31 61-74 61-59 0-76-41-82-99-10-93 101-131 147-64 4 7 5 14 7 22l-32 3c-4-21-16-35-41-35" id="bL"/><path fill="#333" d="M100-194c63 0 86 42 84 106H49c0 40 14 67 53 68 26 1 43-12 49-29l28 8c-11 28-37 45-77 45C44 4 14-33 15-96c1-61 26-98 85-98zm52 81c6-60-76-77-97-28-3 7-6 17-6 28h103" id="bM"/><path fill="#333" d="M114-163C36-179 61-72 57 0H25l-1-190h30c1 12-1 29 2 39 6-27 23-49 58-41v29" id="bN"/><g id="D"><use transform="matrix(0.05,0,0,0.05,0,0)" xlink:href="#bI"/><use transform="matrix(0.05,0,0,0.05,12,0)" xlink:href="#bG"/><use transform="matrix(0.05,0,0,0.05,22,0)" xlink:href="#bJ"/><use transform="matrix(0.05,0,0,0.05,25.950000000000003,0)" xlink:href="#bG"/><use transform="matrix(0.05,0,0,0.05,35.95,0)" xlink:href="#bK"/><use transform="matrix(0.05,0,0,0.05,45.95,0)" xlink:href="#bL"/><use transform="matrix(0.05,0,0,0.05,54.95,0)" xlink:href="#bM"/><use transform="matrix(0.05,0,0,0.05,64.95,0)" xlink:href="#bN"/></g><path fill="#333" d="M30 0v-248h187v28H63v79h144v27H63v87h162V0H30" id="bO"/><path fill="#333" d="M63-220v92h138v28H63V0H30v-248h175v28H63" id="bP"/><path fill="#333" d="M185-189c-5-48-123-54-124 2 14 75 158 14 163 119 3 78-121 87-175 55-17-10-28-26-33-46l33-7c5 56 141 63 141-1 0-78-155-14-162-118-5-82 145-84 179-34 5 7 8 16 11 25" id="bQ"/><g id="E"><use transform="matrix(0.05,0,0,0.05,0,0)" xlink:href="#bO"/><use transform="matrix(0.05,0,0,0.05,12,0)" xlink:href="#bP"/><use transform="matrix(0.05,0,0,0.05,22.950000000000003,0)" xlink:href="#bQ"/></g><path fill="#333" d="M30-248c87 1 191-15 191 75 0 78-77 80-158 76V0H30v-248zm33 125c57 0 124 11 124-50 0-59-68-47-124-48v98" id="bR"/><path fill="#333" d="M24-231v-30h32v30H24zM24 0v-190h32V0H24" id="bS"/><path fill="#333" d="M210-169c-67 3-38 105-44 169h-31v-121c0-29-5-50-35-48C34-165 62-65 56 0H25l-1-190h30c1 10-1 24 2 32 10-44 99-50 107 0 11-21 27-35 58-36 85-2 47 119 55 194h-31v-121c0-29-5-49-35-48" id="bT"/><path fill="#333" d="M179-190L93 31C79 59 56 82 12 73V49c39 6 53-20 64-50L1-190h34L92-34l54-156h33" id="bU"/><g id="F"><use transform="matrix(0.05,0,0,0.05,0,0)" xlink:href="#bR"/><use transform="matrix(0.05,0,0,0.05,12,0)" xlink:href="#bN"/><use transform="matrix(0.05,0,0,0.05,17.95,0)" xlink:href="#bS"/><use transform="matrix(0.05,0,0,0.05,21.9,0)" xlink:href="#bT"/><use transform="matrix(0.05,0,0,0.05,36.85,0)" xlink:href="#bG"/><use transform="matrix(0.05,0,0,0.05,46.85,0)" xlink:href="#bN"/><use transform="matrix(0.05,0,0,0.05,52.800000000000004,0)" xlink:href="#bU"/></g><path fill="#333" d="M205 0l-28-72H64L36 0H1l101-248h38L239 0h-34zm-38-99l-47-123c-12 45-31 82-46 123h93" id="bV"/><path fill="#333" d="M84 4C-5 8 30-112 23-190h32v120c0 31 7 50 39 49 72-2 45-101 50-169h31l1 190h-30c-1-10 1-25-2-33-11 22-28 36-60 37" id="bW"/><g id="G"><use transform="matrix(0.05,0,0,0.05,0,0)" xlink:href="#bV"/><use transform="matrix(0.05,0,0,0.05,12,0)" xlink:href="#bW"/><use transform="matrix(0.05,0,0,0.05,22,0)" xlink:href="#bN"/><use transform="matrix(0.05,0,0,0.05,27.950000000000003,0)" xlink:href="#bF"/><use transform="matrix(0.05,0,0,0.05,37.95,0)" xlink:href="#bN"/><use transform="matrix(0.05,0,0,0.05,43.900000000000006,0)" xlink:href="#bG"/></g><path fill="#333" d="M190 0L58-211 59 0H30v-248h39L202-35l-2-213h31V0h-41" id="bX"/><path fill="#333" d="M127-220V0H93v-220H8v-28h204v28h-85" id="bY"/><g id="H"><use transform="matrix(0.05,0,0,0.05,0,0)" xlink:href="#bX"/><use transform="matrix(0.05,0,0,0.05,12.950000000000001,0)" xlink:href="#bV"/><use transform="matrix(0.05,0,0,0.05,23.6,0)" xlink:href="#bY"/></g><path fill="#333" d="M177-190C167-65 218 103 67 71c-23-6-38-20-44-43l32-5c15 47 100 32 89-28v-30C133-14 115 1 83 1 29 1 15-40 15-95c0-56 16-97 71-98 29-1 48 16 59 35 1-10 0-23 2-32h30zM94-22c36 0 50-32 50-73 0-42-14-75-50-75-39 0-46 34-46 75s6 73 46 73" id="bZ"/><path fill="#333" d="M59-47c-2 24 18 29 38 22v24C64 9 27 4 27-40v-127H5v-23h24l9-43h21v43h35v23H59v120" id="ca"/><path fill="#333" d="M206 0h-36l-40-164L89 0H53L-1-190h32L70-26l43-164h34l41 164 42-164h31" id="cb"/><g id="I"><use transform="matrix(0.05,0,0,0.05,0,0)" xlink:href="#bZ"/><use transform="matrix(0.05,0,0,0.05,10,0)" xlink:href="#bG"/><use transform="matrix(0.05,0,0,0.05,20,0)" xlink:href="#ca"/><use transform="matrix(0.05,0,0,0.05,25,0)" xlink:href="#bM"/><use transform="matrix(0.05,0,0,0.05,35,0)" xlink:href="#cb"/><use transform="matrix(0.05,0,0,0.05,47.95,0)" xlink:href="#bG"/><use transform="matrix(0.05,0,0,0.05,57.95,0)" xlink:href="#bU"/></g><path fill="#d86613" d="M30 0v-248h187v28H63v79h144v27H63v87h162V0H30" id="cc"/><path fill="#d86613" d="M212-179c-10-28-35-45-73-45-59 0-87 40-87 99 0 60 29 101 89 101 43 0 62-24 78-52l27 14C228-24 195 4 139 4 59 4 22-46 18-125c-6-104 99-153 187-111 19 9 31 26 39 46" id="cd"/><g id="J"><use transform="matrix(0.05,0,0,0.05,0,0)" xlink:href="#cc"/><use transform="matrix(0.05,0,0,0.05,12,0)" xlink:href="#cd"/><use transform="matrix(0.05,0,0,0.05,24.950000000000003,0)" xlink:href="#aj"/></g><path fill="#d86613" d="M63-220v92h138v28H63V0H30v-248h175v28H63" id="ce"/><path fill="#d86613" d="M114-163C36-179 61-72 57 0H25l-1-190h30c1 12-1 29 2 39 6-27 23-49 58-41v29" id="cf"/><path fill="#d86613" d="M100-194c63 0 86 42 84 106H49c0 40 14 67 53 68 26 1 43-12 49-29l28 8c-11 28-37 45-77 45C44 4 14-33 15-96c1-61 26-98 85-98zm52 81c6-60-76-77-97-28-3 7-6 17-6 28h103" id="cg"/><g id="K"><use transform="matrix(0.05,0,0,0.05,0,0)" xlink:href="#ce"/><use transform="matrix(0.05,0,0,0.05,10.950000000000001,0)" xlink:href="#al"/><use transform="matrix(0.05,0,0,0.05,20.950000000000003,0)" xlink:href="#cf"/><use transform="matrix(0.05,0,0,0.05,26.900000000000002,0)" xlink:href="#ap"/><use transform="matrix(0.05,0,0,0.05,36.900000000000006,0)" xlink:href="#al"/><use transform="matrix(0.05,0,0,0.05,46.900000000000006,0)" xlink:href="#ah"/><use transform="matrix(0.05,0,0,0.05,51.900000000000006,0)" xlink:href="#cg"/></g><path fill="#333" d="M212-179c-10-28-35-45-73-45-59 0-87 40-87 99 0 60 29 101 89 101 43 0 62-24 78-52l27 14C228-24 195 4 139 4 59 4 22-46 18-125c-6-104 99-153 187-111 19 9 31 26 39 46" id="ch"/><g id="L"><use transform="matrix(0.05,0,0,0.05,0,0)" xlink:href="#bO"/><use transform="matrix(0.05,0,0,0.05,12,0)" xlink:href="#ch"/><use transform="matrix(0.05,0,0,0.05,24.950000000000003,0)" xlink:href="#bQ"/></g><path fill="#333" d="M135-143c-3-34-86-38-87 0 15 53 115 12 119 90S17 21 10-45l28-5c4 36 97 45 98 0-10-56-113-15-118-90-4-57 82-63 122-42 12 7 21 19 24 35" id="ci"/><path fill="#333" d="M143 0L79-87 56-68V0H24v-261h32v163l83-92h37l-77 82L181 0h-38" id="cj"/><g id="M"><use transform="matrix(0.05,0,0,0.05,0,0)" xlink:href="#bY"/><use transform="matrix(0.05,0,0,0.05,8.950000000000001,0)" xlink:href="#bG"/><use transform="matrix(0.05,0,0,0.05,18.950000000000003,0)" xlink:href="#ci"/><use transform="matrix(0.05,0,0,0.05,27.950000000000003,0)" xlink:href="#cj"/></g><path fill="#333" d="M33 0v-38h34V0H33" id="ck"/><path fill="#333" d="M115-194c55 1 70 41 70 98S169 2 115 4C84 4 66-9 55-30l1 105H24l-1-265h31l2 30c10-21 28-34 59-34zm-8 174c40 0 45-34 45-75s-6-73-45-74c-42 0-51 32-51 76 0 43 10 73 51 73" id="cl"/><g id="N"><use transform="matrix(0.05,0,0,0.05,0,0)" xlink:href="#bQ"/><use transform="matrix(0.05,0,0,0.05,12,0)" xlink:href="#bU"/><use transform="matrix(0.05,0,0,0.05,21,0)" xlink:href="#bK"/><use transform="matrix(0.05,0,0,0.05,31,0)" xlink:href="#bL"/><use transform="matrix(0.05,0,0,0.05,40,0)" xlink:href="#ck"/><use transform="matrix(0.05,0,0,0.05,45,0)" xlink:href="#bN"/><use transform="matrix(0.05,0,0,0.05,50.95,0)" xlink:href="#bM"/><use transform="matrix(0.05,0,0,0.05,60.95,0)" xlink:href="#cl"/><use transform="matrix(0.05,0,0,0.05,70.95,0)" xlink:href="#bJ"/><use transform="matrix(0.05,0,0,0.05,74.9,0)" xlink:href="#bS"/><use transform="matrix(0.05,0,0,0.05,78.85000000000001,0)" xlink:href="#bL"/><use transform="matrix(0.05,0,0,0.05,87.85000000000001,0)" xlink:href="#bG"/><use transform="matrix(0.05,0,0,0.05,97.85000000000001,0)" xlink:href="#ca"/><use transform="matrix(0.05,0,0,0.05,102.85000000000001,0)" xlink:href="#bS"/><use transform="matrix(0.05,0,0,0.05,106.80000000000001,0)" xlink:href="#bF"/><use transform="matrix(0.05,0,0,0.05,116.80000000000001,0)" xlink:href="#bK"/></g><path fill="#333" d="M33 0v-248h34V0H33" id="cm"/><g id="O"><use transform="matrix(0.056172839506172835,0,0,0.056172839506172835,0,0)" xlink:href="#cm"/><use transform="matrix(0.056172839506172835,0,0,0.056172839506172835,5.617283950617283,0)" xlink:href="#bK"/><use transform="matrix(0.056172839506172835,0,0,0.056172839506172835,16.851851851851848,0)" xlink:href="#ca"/><use transform="matrix(0.056172839506172835,0,0,0.056172839506172835,22.469135802469133,0)" xlink:href="#bM"/><use transform="matrix(0.056172839506172835,0,0,0.056172839506172835,33.703703703703695,0)" xlink:href="#bN"/><use transform="matrix(0.056172839506172835,0,0,0.056172839506172835,40.38827160493826,0)" xlink:href="#bK"/><use transform="matrix(0.056172839506172835,0,0,0.056172839506172835,51.622839506172824,0)" xlink:href="#bM"/><use transform="matrix(0.056172839506172835,0,0,0.056172839506172835,62.857407407407386,0)" xlink:href="#ca"/></g><g id="P"><use transform="matrix(0.056172839506172835,0,0,0.056172839506172835,0,0)" xlink:href="#bZ"/><use transform="matrix(0.056172839506172835,0,0,0.056172839506172835,11.234567901234566,0)" xlink:href="#bG"/><use transform="matrix(0.056172839506172835,0,0,0.056172839506172835,22.469135802469133,0)" xlink:href="#ca"/><use transform="matrix(0.056172839506172835,0,0,0.056172839506172835,28.086419753086417,0)" xlink:href="#bM"/><use transform="matrix(0.056172839506172835,0,0,0.056172839506172835,39.32098765432099,0)" xlink:href="#cb"/><use transform="matrix(0.056172839506172835,0,0,0.056172839506172835,53.86975308641975,0)" xlink:href="#bG"/><use transform="matrix(0.056172839506172835,0,0,0.056172839506172835,65.10432098765432,0)" xlink:href="#bU"/></g><path fill="#333" d="M240 0l2-218c-23 76-54 145-80 218h-23L58-218 59 0H30v-248h44l77 211c21-75 51-140 76-211h43V0h-30" id="cn"/><g id="Q"><use transform="matrix(0.05,0,0,0.05,0,0)" xlink:href="#cn"/><use transform="matrix(0.05,0,0,0.05,14.950000000000001,0)" xlink:href="#bW"/><use transform="matrix(0.05,0,0,0.05,24.950000000000003,0)" xlink:href="#bJ"/><use transform="matrix(0.05,0,0,0.05,28.900000000000002,0)" xlink:href="#ca"/><use transform="matrix(0.05,0,0,0.05,33.900000000000006,0)" xlink:href="#bS"/></g><path fill="#333" d="M0 4l72-265h28L28 4H0" id="co"/><path fill="#333" d="M209 0H11v-25l151-195H24v-28h176v25L50-27h159V0" id="cp"/><g id="R"><use transform="matrix(0.05,0,0,0.05,0,0)" xlink:href="#bV"/><use transform="matrix(0.05,0,0,0.05,12,0)" xlink:href="#co"/><use transform="matrix(0.05,0,0,0.05,17,0)" xlink:href="#cp"/></g></defs></g></svg>